<?xml version="1.0" encoding="UTF-8" standalone="no"?>
<!-- Uploaded to: SVG Repo, www.svgrepo.com, Transformed by: SVG Repo Mixer Tools -->

<svg
   width="800"
   height="800"
   viewBox="0 0 48 48"
   version="1.1"
   fill="#000000"
   id="svg1"
   xmlns="http://www.w3.org/2000/svg"
   xmlns:svg="http://www.w3.org/2000/svg">
  <defs
     id="defs2" />
  <path
     d="M 25.63835,48 H 2.64923 C 1.18567,48 0,46.81359 0,45.3506 V 2.64921 C 0,1.18585 1.18586,0 2.64923,0 H 45.35095 C 46.81395,0 48,1.18585 48,2.64921 V 45.3506 C 48,46.81378 46.81377,48 45.35095,48 H 33.1193 V 29.41175 h 6.23922 l 0.93423,-7.24416 H 33.1193 v -4.62495 c 0,-2.09735 0.58241,-3.52663 3.58999,-3.52663 l 3.83602,-0.002 V 7.53477 c -0.66342,-0.0883 -2.94053,-0.28552 -5.58976,-0.28552 -5.53072,0 -9.3172,3.37596 -9.3172,9.57564 v 5.34238 h -6.25523 v 7.24416 h 6.25523 z"
     id="Facebook"
     style="fill:#4460a0;fill-rule:evenodd;stroke:none;stroke-width:1" />
</svg>
