<svg width="307" height="72" viewBox="0 0 307 72" fill="none" xmlns="http://www.w3.org/2000/svg">
<path d="M85.548 43.808C85.572 43.34 85.602 42.866 85.638 42.386C85.674 41.894 85.716 41.408 85.764 40.928C86.652 40.964 87.384 40.958 87.96 40.91C88.536 40.85 88.962 40.73 89.238 40.55C89.514 40.358 89.652 40.088 89.652 39.74C89.652 39.236 89.328 38.918 88.68 38.786C88.032 38.642 87.12 38.564 85.944 38.552C85.968 38.12 86.004 37.694 86.052 37.274C86.1 36.854 86.148 36.428 86.196 35.996C87.288 36.26 88.158 36.374 88.806 36.338C89.466 36.302 89.796 35.918 89.796 35.186C89.796 34.778 89.544 34.478 89.04 34.286C88.536 34.082 87.66 33.92 86.412 33.8C86.508 33.056 86.598 32.312 86.682 31.568C86.778 30.824 86.88 30.068 86.988 29.3C87.204 27.716 87.69 26.558 88.446 25.826C89.202 25.094 90.216 24.728 91.488 24.728C92.676 24.728 93.552 25.01 94.116 25.574C94.692 26.126 95.124 26.852 95.412 27.752C95.496 28.004 95.574 28.256 95.646 28.508C95.73 28.748 95.808 28.988 95.88 29.228C95.94 29.396 95.994 29.57 96.042 29.75C96.102 29.918 96.156 30.086 96.204 30.254C96.252 30.41 96.3 30.572 96.348 30.74C96.396 30.896 96.444 31.058 96.492 31.226C96.552 31.442 96.618 31.658 96.69 31.874C96.762 32.09 96.828 32.312 96.888 32.54C96.936 32.696 96.978 32.852 97.014 33.008C97.062 33.152 97.11 33.302 97.158 33.458C97.218 33.614 97.272 33.77 97.32 33.926C97.368 34.082 97.416 34.244 97.464 34.412C97.608 34.904 97.758 35.408 97.914 35.924C98.082 36.44 98.256 36.98 98.436 37.544C98.556 37.928 98.784 38.12 99.12 38.12C99.432 38.12 99.66 37.892 99.804 37.436C100.164 36.32 100.494 35.186 100.794 34.034C101.094 32.882 101.406 31.706 101.73 30.506C102.054 29.294 102.432 28.052 102.864 26.78C103.116 26.024 103.44 25.454 103.836 25.07C104.232 24.674 104.76 24.476 105.42 24.476C106.2 24.476 106.764 24.746 107.112 25.286C107.472 25.814 107.712 26.504 107.832 27.356C108.324 30.68 108.768 34.124 109.164 37.688C109.56 41.24 109.908 44.756 110.208 48.236C110.268 48.824 110.196 49.31 109.992 49.694C109.788 50.066 109.44 50.252 108.948 50.252C108.48 50.252 108.114 50.096 107.85 49.784C107.598 49.472 107.4 48.992 107.256 48.344C106.884 46.544 106.548 44.762 106.248 42.998C105.948 41.234 105.636 39.644 105.312 38.228C105.204 37.724 104.988 37.442 104.664 37.382C104.352 37.322 104.004 37.484 103.62 37.868C103.08 38.42 102.594 38.984 102.162 39.56C101.73 40.136 101.244 40.712 100.704 41.288C100.308 41.72 99.924 42.02 99.552 42.188C99.18 42.356 98.808 42.44 98.436 42.44C98.004 42.44 97.602 42.302 97.23 42.026C96.87 41.738 96.564 41.288 96.312 40.676C95.7 39.212 95.118 37.634 94.566 35.942C94.014 34.25 93.432 32.624 92.82 31.064C92.628 30.572 92.382 30.374 92.082 30.47C91.782 30.554 91.62 30.812 91.596 31.244C91.548 32.648 91.536 33.98 91.56 35.24C91.596 36.5 91.632 37.856 91.668 39.308C91.704 40.748 91.716 42.44 91.704 44.384C91.692 45.512 91.446 46.406 90.966 47.066C90.498 47.726 89.64 48.056 88.392 48.056C87.576 48.056 86.958 47.876 86.538 47.516C86.118 47.156 85.836 46.658 85.692 46.022C85.56 45.374 85.512 44.636 85.548 43.808ZM104.952 34.556C105.408 34.556 105.786 34.418 106.086 34.142C106.386 33.854 106.536 33.488 106.536 33.044C106.536 32.408 106.398 31.958 106.122 31.694C105.858 31.418 105.528 31.28 105.132 31.28C104.472 31.28 103.992 31.442 103.692 31.766C103.404 32.078 103.26 32.504 103.26 33.044C103.26 33.488 103.422 33.854 103.746 34.142C104.07 34.418 104.472 34.556 104.952 34.556ZM99.012 41.252C98.568 41.252 98.25 41.162 98.058 40.982C97.878 40.802 97.788 40.568 97.788 40.28C97.788 39.848 97.884 39.53 98.076 39.326C98.268 39.122 98.58 39.02 99.012 39.02C99.324 39.02 99.57 39.116 99.75 39.308C99.93 39.488 100.02 39.788 100.02 40.208C100.02 40.568 99.93 40.832 99.75 41C99.57 41.168 99.324 41.252 99.012 41.252ZM107.724 46.58C107.256 46.652 106.746 46.712 106.194 46.76C105.654 46.808 105.096 46.844 104.52 46.868C103.62 46.904 102.924 46.838 102.432 46.67C101.952 46.502 101.712 46.148 101.712 45.608C101.712 45.116 101.928 44.78 102.36 44.6C102.804 44.408 103.548 44.252 104.592 44.132C105.024 44.096 105.444 44.066 105.852 44.042C106.26 44.006 106.752 43.988 107.328 43.988C107.832 43.988 108.258 44.066 108.606 44.222C108.954 44.366 109.128 44.684 109.128 45.176C109.128 45.644 109.002 45.98 108.75 46.184C108.498 46.376 108.156 46.508 107.724 46.58ZM177.737 50.648C175.901 50.648 174.293 50.204 172.913 49.316C171.533 48.416 170.459 47.072 169.691 45.284C168.935 43.496 168.557 41.252 168.557 38.552C168.557 35.696 169.067 33.224 170.087 31.136C171.107 29.036 172.475 27.416 174.191 26.276C175.907 25.124 177.809 24.548 179.897 24.548C180.869 24.548 181.757 24.686 182.561 24.962C183.365 25.226 184.001 25.67 184.469 26.294C184.949 26.906 185.189 27.728 185.189 28.76C185.189 29.816 184.967 30.722 184.523 31.478C184.079 32.234 183.449 32.612 182.633 32.612C182.453 32.612 182.285 32.612 182.129 32.612C181.985 32.6 181.829 32.576 181.661 32.54C181.985 31.088 182.183 30.002 182.255 29.282C182.327 28.562 182.291 28.076 182.147 27.824C182.015 27.572 181.817 27.428 181.553 27.392C181.289 27.356 181.043 27.446 180.815 27.662C180.599 27.878 180.401 28.346 180.221 29.066C180.041 29.774 179.885 30.848 179.753 32.288C179.489 32.252 179.153 32.216 178.745 32.18C178.349 32.144 178.013 32.132 177.737 32.144C177.785 30.98 177.779 30.11 177.719 29.534C177.671 28.958 177.563 28.58 177.395 28.4C177.227 28.22 176.993 28.136 176.693 28.148C176.429 28.16 176.207 28.268 176.027 28.472C175.847 28.664 175.721 29.048 175.649 29.624C175.589 30.188 175.589 31.028 175.649 32.144C175.001 32.3 174.383 32.666 173.795 33.242C173.219 33.806 172.745 34.568 172.373 35.528C172.013 36.476 171.833 37.604 171.833 38.912C171.833 40.796 172.109 42.404 172.661 43.736C173.213 45.068 173.945 46.088 174.857 46.796C175.769 47.492 176.765 47.84 177.845 47.84C177.965 47.84 178.079 47.84 178.187 47.84C178.307 47.828 178.421 47.816 178.529 47.804C178.649 47.78 178.763 47.762 178.871 47.75C178.991 47.726 179.105 47.702 179.213 47.678C179.381 47.642 179.549 47.594 179.717 47.534C179.897 47.474 180.071 47.414 180.239 47.354C180.335 47.306 180.431 47.264 180.527 47.228C180.623 47.18 180.713 47.132 180.797 47.084C180.869 47.048 180.935 47.006 180.995 46.958C181.067 46.91 181.133 46.868 181.193 46.832C181.265 46.796 181.331 46.76 181.391 46.724C181.439 46.664 181.493 46.622 181.553 46.598C181.613 46.562 181.667 46.52 181.715 46.472C181.775 46.412 181.847 46.346 181.931 46.274C182.363 45.842 182.723 45.524 183.011 45.32C183.311 45.116 183.629 45.014 183.965 45.014C184.277 45.014 184.523 45.128 184.703 45.356C184.895 45.584 184.991 45.86 184.991 46.184C184.991 46.784 184.793 47.354 184.397 47.894C184.001 48.422 183.461 48.896 182.777 49.316C182.093 49.724 181.313 50.048 180.437 50.288C179.573 50.528 178.673 50.648 177.737 50.648ZM175.613 26.78C175.649 26.828 175.691 26.894 175.739 26.978C175.799 27.062 175.853 27.152 175.901 27.248C175.997 27.452 175.937 27.686 175.721 27.95C175.505 28.202 175.241 28.424 174.929 28.616C174.629 28.796 174.383 28.886 174.191 28.886C174.131 28.886 174.071 28.886 174.011 28.886C173.951 28.874 173.897 28.844 173.849 28.796C173.813 28.76 173.759 28.706 173.687 28.634C173.615 28.55 173.561 28.484 173.525 28.436C173.309 28.124 173.243 27.818 173.327 27.518C173.411 27.218 173.597 26.972 173.885 26.78C174.173 26.576 174.485 26.474 174.821 26.474C174.989 26.474 175.139 26.504 175.271 26.564C175.415 26.612 175.529 26.684 175.613 26.78ZM168.251 42.656C168.911 42.356 169.727 42.008 170.699 41.612C171.671 41.216 172.667 40.838 173.687 40.478C174.095 40.322 174.449 40.286 174.749 40.37C175.049 40.454 175.265 40.634 175.397 40.91C175.577 41.222 175.601 41.534 175.469 41.846C175.349 42.146 175.079 42.416 174.659 42.656C173.711 43.16 172.757 43.652 171.797 44.132C170.849 44.612 169.991 45.02 169.223 45.356C168.599 45.644 168.077 45.758 167.657 45.698C167.249 45.626 166.955 45.368 166.775 44.924C166.607 44.492 166.631 44.084 166.847 43.7C167.075 43.316 167.543 42.968 168.251 42.656ZM178.529 41.288C178.025 41.288 177.617 41.126 177.305 40.802C176.993 40.478 176.837 39.992 176.837 39.344C176.837 38.804 177.011 38.36 177.359 38.012C177.707 37.652 178.229 37.472 178.925 37.472C179.465 37.472 179.885 37.634 180.185 37.958C180.497 38.27 180.653 38.696 180.653 39.236C180.653 39.956 180.485 40.478 180.149 40.802C179.825 41.126 179.285 41.288 178.529 41.288ZM182.417 47.264C182.489 47.348 182.555 47.45 182.615 47.57C182.687 47.678 182.741 47.78 182.777 47.876C182.945 48.236 182.867 48.542 182.543 48.794C182.231 49.046 181.901 49.172 181.553 49.172C181.385 49.172 181.229 49.13 181.085 49.046C180.953 48.962 180.845 48.86 180.761 48.74C180.725 48.68 180.689 48.62 180.653 48.56C180.629 48.488 180.605 48.428 180.581 48.38L182.417 47.264ZM180.185 49.748C180.281 50.396 180.365 51.044 180.437 51.692C180.509 52.352 180.569 53.024 180.617 53.708C180.641 54.224 180.539 54.602 180.311 54.842C180.083 55.094 179.711 55.22 179.195 55.22C178.799 55.22 178.493 55.094 178.277 54.842C178.073 54.59 177.941 54.188 177.881 53.636C177.833 53.06 177.785 52.454 177.737 51.818C177.689 51.182 177.653 50.516 177.629 49.82C177.629 49.46 177.761 49.184 178.025 48.992C178.289 48.8 178.571 48.704 178.871 48.704C179.183 48.704 179.465 48.788 179.717 48.956C179.969 49.124 180.125 49.388 180.185 49.748ZM252.926 50.072C251.402 50.072 250.076 49.892 248.948 49.532C247.832 49.16 246.908 48.614 246.176 47.894C245.444 47.162 244.898 46.262 244.538 45.194C244.178 44.126 243.998 42.89 243.998 41.486C243.998 40.754 244.01 39.896 244.034 38.912C244.07 37.928 244.112 36.878 244.16 35.762C244.22 34.646 244.286 33.512 244.358 32.36C244.43 31.208 244.502 30.092 244.574 29.012C244.658 27.932 244.742 26.948 244.826 26.06C244.886 25.388 245.036 24.86 245.276 24.476C245.516 24.092 245.894 23.9 246.41 23.9C246.974 23.9 247.37 24.146 247.598 24.638C247.838 25.13 247.958 25.784 247.958 26.6C247.958 27.092 247.946 27.788 247.922 28.688C247.898 29.576 247.868 30.584 247.832 31.712C247.808 32.828 247.778 33.992 247.742 35.204C247.718 36.416 247.694 37.592 247.67 38.732C247.646 39.86 247.634 40.874 247.634 41.774C247.634 42.758 247.73 43.604 247.922 44.312C248.114 45.008 248.438 45.542 248.894 45.914C249.35 46.286 249.962 46.472 250.73 46.472C251.39 46.472 251.96 46.346 252.44 46.094C252.932 45.842 253.346 45.434 253.682 44.87C254.018 44.294 254.294 43.532 254.51 42.584C254.762 41.504 254.996 40.4 255.212 39.272C255.44 38.132 255.65 36.956 255.842 35.744C256.046 34.532 256.256 33.266 256.472 31.946C256.688 30.626 256.922 29.24 257.174 27.788C257.306 27.044 257.528 26.486 257.84 26.114C258.152 25.742 258.566 25.556 259.082 25.556C259.646 25.556 260.06 25.76 260.324 26.168C260.588 26.564 260.762 27.068 260.846 27.68C260.966 28.46 261.098 29.384 261.242 30.452C261.398 31.52 261.548 32.636 261.691 33.8C261.836 34.964 261.968 36.092 262.088 37.184C262.22 38.276 262.322 39.248 262.394 40.1C262.478 40.94 262.52 41.564 262.52 41.972C262.52 43.76 262.166 45.254 261.458 46.454C260.762 47.654 259.7 48.56 258.272 49.172C256.856 49.772 255.074 50.072 252.926 50.072ZM251.468 39.956C250.976 39.956 250.532 39.836 250.136 39.596C249.752 39.356 249.56 38.924 249.56 38.3C249.56 37.76 249.716 37.28 250.027 36.86C250.352 36.428 250.832 36.212 251.468 36.212C251.96 36.212 252.38 36.356 252.728 36.644C253.076 36.932 253.25 37.34 253.25 37.868C253.25 38.456 253.082 38.954 252.746 39.362C252.422 39.758 251.996 39.956 251.468 39.956ZM249.65 29.516C250.586 29.516 251.27 29.57 251.702 29.678C252.134 29.786 252.35 30.068 252.35 30.524C252.35 31.04 252.146 31.37 251.738 31.514C251.33 31.646 250.646 31.76 249.686 31.856C248.774 31.94 247.862 32.006 246.95 32.054C246.05 32.09 245.15 32.12 244.25 32.144C243.23 32.156 242.486 32.09 242.018 31.946C241.562 31.79 241.334 31.472 241.334 30.992C241.334 30.488 241.544 30.164 241.964 30.02C242.396 29.876 243.086 29.78 244.034 29.732C244.97 29.672 245.906 29.624 246.842 29.588C247.778 29.552 248.714 29.528 249.65 29.516ZM245.438 34.016C245.714 33.992 245.936 34.028 246.104 34.124C246.284 34.208 246.416 34.352 246.5 34.556C246.584 34.76 246.626 35.012 246.626 35.312C246.626 35.492 246.596 35.642 246.536 35.762C246.476 35.882 246.386 35.984 246.266 36.068C246.146 36.152 246.002 36.224 245.834 36.284C245.678 36.332 245.468 36.392 245.204 36.464C244.952 36.524 244.706 36.572 244.466 36.608C243.386 36.788 242.528 36.83 241.892 36.734C241.256 36.638 240.938 36.284 240.938 35.672C240.938 35.288 241.178 34.988 241.658 34.772C242.138 34.556 243.062 34.34 244.43 34.124C244.598 34.1 244.766 34.082 244.934 34.07C245.114 34.046 245.282 34.028 245.438 34.016ZM259.55 31.208C259.838 31.184 260.06 31.292 260.216 31.532C260.372 31.772 260.45 32.036 260.45 32.324C260.45 32.612 260.372 32.876 260.216 33.116C260.072 33.356 259.838 33.488 259.514 33.512C259.406 33.512 259.292 33.512 259.172 33.512C259.052 33.512 258.938 33.512 258.83 33.512C258.47 33.524 258.194 33.386 258.002 33.098C257.81 32.81 257.714 32.504 257.714 32.18C257.714 31.928 257.78 31.706 257.912 31.514C258.044 31.31 258.254 31.208 258.542 31.208C258.71 31.208 258.878 31.208 259.046 31.208C259.226 31.208 259.394 31.208 259.55 31.208ZM258.65 43.088C259.25 43.088 259.688 42.95 259.964 42.674C260.24 42.398 260.378 42.044 260.378 41.612C260.378 40.964 260.234 40.49 259.945 40.19C259.669 39.89 259.286 39.74 258.794 39.74C258.254 39.74 257.822 39.89 257.498 40.19C257.186 40.478 257.03 40.856 257.03 41.324C257.03 41.864 257.186 42.296 257.498 42.62C257.822 42.932 258.206 43.088 258.65 43.088ZM258.938 37.796C259.37 37.796 259.688 37.682 259.892 37.454C260.096 37.226 260.198 36.836 260.198 36.284C260.198 35.936 260.084 35.654 259.855 35.438C259.639 35.21 259.37 35.096 259.046 35.096C258.566 35.096 258.194 35.21 257.93 35.438C257.666 35.654 257.534 35.972 257.534 36.392C257.534 36.8 257.654 37.136 257.894 37.4C258.146 37.664 258.494 37.796 258.938 37.796ZM257.318 47.156C257.738 47.156 258.05 47.054 258.254 46.85C258.47 46.646 258.578 46.364 258.578 46.004C258.578 45.5 258.47 45.14 258.254 44.924C258.038 44.708 257.666 44.6 257.138 44.6C256.838 44.6 256.574 44.72 256.346 44.96C256.13 45.188 256.022 45.5 256.022 45.896C256.022 46.256 256.136 46.556 256.364 46.796C256.604 47.036 256.922 47.156 257.318 47.156Z" fill="#481E0B"/>
<path d="M114.099 47.264C114.099 45.404 114.111 43.64 114.135 41.972C114.171 40.304 114.207 38.564 114.243 36.752C115.383 36.752 116.241 36.71 116.817 36.626C117.393 36.542 117.777 36.404 117.969 36.212C118.161 36.02 118.251 35.768 118.239 35.456C118.227 35.168 118.131 34.94 117.951 34.772C117.783 34.604 117.417 34.496 116.853 34.448C116.301 34.388 115.455 34.388 114.315 34.448C114.315 34.16 114.315 33.806 114.315 33.386C114.327 32.954 114.339 32.588 114.351 32.288C115.671 32.228 116.511 32.102 116.871 31.91C117.231 31.706 117.411 31.4 117.411 30.992C117.411 30.56 117.225 30.242 116.853 30.038C116.481 29.834 115.647 29.744 114.351 29.768C114.351 29.564 114.357 29.324 114.369 29.048C114.393 28.772 114.411 28.448 114.423 28.076C114.459 27.068 114.759 26.378 115.323 26.006C115.887 25.622 116.643 25.388 117.591 25.304C118.311 25.244 119.031 25.184 119.751 25.124C120.471 25.064 121.185 25.016 121.893 24.98C122.601 24.932 123.291 24.896 123.963 24.872C124.647 24.848 125.307 24.836 125.943 24.836C126.903 24.836 127.587 24.974 127.995 25.25C128.403 25.526 128.607 25.964 128.607 26.564C128.607 26.948 128.547 27.266 128.427 27.518C128.307 27.758 128.121 27.938 127.869 28.058C127.629 28.166 127.323 28.22 126.951 28.22C126.915 28.22 126.867 28.22 126.807 28.22C126.759 28.22 126.705 28.22 126.645 28.22C126.585 28.22 126.525 28.22 126.465 28.22C126.309 28.208 126.153 28.202 125.997 28.202C125.853 28.202 125.727 28.196 125.619 28.184C125.259 28.16 124.875 28.142 124.467 28.13C124.071 28.118 123.681 28.106 123.297 28.094C123.213 28.094 123.129 28.094 123.045 28.094C122.961 28.082 122.871 28.076 122.775 28.076C122.691 28.076 122.607 28.076 122.523 28.076C122.439 28.064 122.355 28.058 122.271 28.058C122.199 28.058 122.127 28.058 122.055 28.058C121.899 28.046 121.749 28.04 121.605 28.04C121.473 28.04 121.347 28.04 121.227 28.04C120.795 28.04 120.507 28.136 120.363 28.328C120.219 28.52 120.171 28.952 120.219 29.624C120.291 30.608 120.381 31.502 120.489 32.306C120.597 33.11 120.723 33.992 120.867 34.952C120.939 35.42 121.047 35.738 121.191 35.906C121.347 36.074 121.611 36.14 121.983 36.104C122.511 36.044 123.051 35.978 123.603 35.906C124.167 35.822 124.647 35.756 125.043 35.708C125.511 35.648 125.859 35.774 126.087 36.086C126.327 36.398 126.447 36.764 126.447 37.184C126.447 37.58 126.333 37.958 126.105 38.318C125.877 38.666 125.535 38.852 125.079 38.876C124.815 38.888 124.539 38.9 124.251 38.912C123.963 38.924 123.663 38.936 123.351 38.948C123.219 38.96 123.087 38.966 122.955 38.966C122.835 38.966 122.709 38.972 122.577 38.984C122.457 38.984 122.331 38.99 122.199 39.002C122.079 39.002 121.959 39.002 121.839 39.002C121.611 39.014 121.383 39.026 121.155 39.038C120.939 39.038 120.717 39.044 120.489 39.056C120.417 39.056 120.339 39.056 120.255 39.056C120.183 39.056 120.105 39.062 120.021 39.074C119.949 39.074 119.871 39.074 119.787 39.074C119.715 39.074 119.643 39.08 119.571 39.092C119.499 39.092 119.421 39.092 119.337 39.092C119.265 39.092 119.193 39.098 119.121 39.11C118.929 39.122 118.737 39.134 118.545 39.146C118.365 39.158 118.191 39.164 118.023 39.164C117.759 39.176 117.543 39.278 117.375 39.47C117.219 39.662 117.183 40.004 117.267 40.496C117.435 41.372 117.627 42.242 117.843 43.106C118.059 43.958 118.299 44.828 118.563 45.716C118.707 46.196 118.881 46.508 119.085 46.652C119.289 46.784 119.571 46.832 119.931 46.796C121.143 46.664 122.349 46.52 123.549 46.364C124.761 46.208 126.003 46.076 127.275 45.968C127.827 45.92 128.235 46.088 128.499 46.472C128.775 46.856 128.913 47.276 128.913 47.732C128.913 48.14 128.799 48.518 128.571 48.866C128.355 49.214 128.019 49.4 127.563 49.424C125.715 49.496 123.855 49.526 121.983 49.514C120.123 49.502 118.263 49.496 116.403 49.496C115.575 49.496 114.981 49.298 114.621 48.902C114.273 48.506 114.099 47.96 114.099 47.264ZM118.995 48.308L121.335 48.344C121.383 49.7 121.377 50.708 121.317 51.368C121.269 52.04 121.149 52.484 120.957 52.7C120.777 52.916 120.519 53.024 120.183 53.024C119.835 53.024 119.571 52.91 119.391 52.682C119.223 52.466 119.109 52.022 119.049 51.35C119.001 50.678 118.983 49.664 118.995 48.308ZM124.503 52.484C124.455 51.836 124.413 51.176 124.377 50.504C124.341 49.844 124.311 49.184 124.287 48.524C124.275 47.768 124.353 47.252 124.521 46.976C124.701 46.688 125.007 46.544 125.439 46.544C125.823 46.544 126.105 46.676 126.285 46.94C126.477 47.192 126.591 47.624 126.627 48.236C126.663 48.92 126.693 49.598 126.717 50.27C126.741 50.942 126.759 51.62 126.771 52.304C126.795 52.916 126.705 53.36 126.501 53.636C126.309 53.924 126.039 54.068 125.691 54.068C125.331 54.068 125.055 53.948 124.863 53.708C124.683 53.48 124.563 53.072 124.503 52.484ZM125.295 44.348C124.659 44.348 124.167 44.174 123.819 43.826C123.483 43.478 123.315 42.98 123.315 42.332C123.315 41.684 123.477 41.21 123.801 40.91C124.137 40.61 124.599 40.46 125.187 40.46C125.823 40.46 126.315 40.622 126.663 40.946C127.023 41.27 127.203 41.696 127.203 42.224C127.203 42.944 127.023 43.478 126.663 43.826C126.315 44.174 125.859 44.348 125.295 44.348ZM122.955 26.132C122.955 25.892 123.069 25.682 123.297 25.502C123.525 25.322 123.783 25.232 124.071 25.232C124.383 25.232 124.671 25.268 124.935 25.34C125.211 25.4 125.355 25.568 125.367 25.844C125.391 25.964 125.409 26.09 125.421 26.222C125.433 26.342 125.439 26.456 125.439 26.564C125.439 26.828 125.331 27.056 125.115 27.248C124.899 27.44 124.635 27.536 124.323 27.536C124.035 27.536 123.753 27.488 123.477 27.392C123.213 27.284 123.063 27.08 123.027 26.78C123.015 26.672 122.997 26.564 122.973 26.456C122.961 26.348 122.955 26.24 122.955 26.132ZM118.059 27.32L117.735 29.624C117.303 29.564 116.967 29.456 116.727 29.3C116.487 29.132 116.367 28.844 116.367 28.436C116.367 27.932 116.517 27.62 116.817 27.5C117.129 27.38 117.543 27.32 118.059 27.32ZM196.985 49.172C195.821 49.172 194.771 49.016 193.835 48.704C192.899 48.392 192.089 47.912 191.405 47.264C190.721 46.604 190.169 45.788 189.749 44.816C189.329 43.832 189.053 42.692 188.921 41.396C188.837 40.616 188.741 39.692 188.633 38.624C188.537 37.544 188.441 36.416 188.345 35.24C188.249 34.052 188.159 32.9 188.075 31.784C187.991 30.656 187.919 29.654 187.859 28.778C187.811 27.89 187.787 27.224 187.787 26.78C187.787 25.964 187.961 25.376 188.309 25.016C188.657 24.656 189.161 24.476 189.821 24.476C190.505 24.476 190.991 24.692 191.279 25.124C191.579 25.544 191.729 26.24 191.729 27.212C191.729 27.824 191.723 28.448 191.711 29.084C191.699 29.72 191.681 30.368 191.657 31.028C191.645 31.676 191.633 32.336 191.621 33.008C191.609 33.68 191.597 34.352 191.585 35.024C191.573 35.696 191.567 36.368 191.567 37.04C191.567 38.036 191.603 38.888 191.675 39.596C191.747 40.292 191.945 40.82 192.269 41.18C192.605 41.54 193.169 41.72 193.961 41.72C194.897 41.72 195.767 41.516 196.571 41.108C197.387 40.7 198.125 40.094 198.785 39.29C199.445 38.486 199.997 37.484 200.441 36.284C200.729 35.492 200.993 34.724 201.233 33.98C201.473 33.224 201.701 32.486 201.917 31.766C202.133 31.046 202.349 30.338 202.565 29.642C202.781 28.934 203.009 28.232 203.249 27.536C203.429 27.008 203.627 26.618 203.843 26.366C204.071 26.114 204.365 25.988 204.725 25.988C205.109 25.988 205.379 26.132 205.535 26.42C205.691 26.696 205.775 27.098 205.787 27.626C205.775 28.19 205.751 28.91 205.715 29.786C205.679 30.65 205.637 31.592 205.589 32.612C205.541 33.632 205.481 34.664 205.409 35.708C205.337 36.752 205.259 37.748 205.175 38.696C205.103 39.632 205.037 40.448 204.977 41.144C204.785 43.136 204.293 44.72 203.501 45.896C202.709 47.06 201.743 47.9 200.603 48.416C199.463 48.92 198.257 49.172 196.985 49.172ZM195.365 39.956C194.813 39.956 194.375 39.776 194.051 39.416C193.727 39.044 193.565 38.522 193.565 37.85C193.565 37.418 193.691 37.04 193.943 36.716C194.195 36.38 194.579 36.212 195.095 36.212C195.815 36.212 196.361 36.356 196.733 36.644C197.117 36.92 197.309 37.34 197.309 37.904C197.309 38.576 197.129 39.086 196.769 39.434C196.409 39.782 195.941 39.956 195.365 39.956ZM189.065 29.516C189.629 29.48 190.055 29.534 190.343 29.678C190.631 29.81 190.775 30.128 190.775 30.632C190.775 30.932 190.667 31.166 190.451 31.334C190.235 31.49 189.863 31.604 189.335 31.676C189.071 31.7 188.813 31.742 188.561 31.802C188.309 31.85 188.057 31.892 187.805 31.928C187.037 32.036 186.419 32.066 185.951 32.018C185.483 31.97 185.249 31.64 185.249 31.028C185.249 30.668 185.417 30.398 185.753 30.218C186.089 30.038 186.605 29.888 187.301 29.768C187.589 29.708 187.883 29.654 188.183 29.606C188.483 29.558 188.777 29.528 189.065 29.516ZM193.925 32.36C194.417 32.312 194.831 32.294 195.167 32.306C195.515 32.306 195.779 32.378 195.959 32.522C196.139 32.654 196.229 32.876 196.229 33.188C196.229 33.416 196.157 33.614 196.013 33.782C195.881 33.95 195.659 34.094 195.347 34.214C195.047 34.334 194.633 34.436 194.105 34.52C193.661 34.592 193.169 34.67 192.629 34.754C192.089 34.838 191.501 34.916 190.865 34.988C190.373 35.024 189.995 34.988 189.731 34.88C189.479 34.76 189.353 34.448 189.353 33.944C189.353 33.668 189.431 33.44 189.587 33.26C189.743 33.068 189.965 32.948 190.253 32.9C190.865 32.768 191.477 32.66 192.089 32.576C192.701 32.48 193.313 32.408 193.925 32.36ZM205.409 36.212C206.561 36.32 207.359 36.482 207.803 36.698C208.247 36.902 208.469 37.184 208.469 37.544C208.469 38.228 208.145 38.594 207.497 38.642C206.861 38.678 206.051 38.672 205.067 38.624C204.743 38.6 204.407 38.57 204.059 38.534C203.723 38.498 203.381 38.456 203.033 38.408C202.709 38.348 202.463 38.204 202.295 37.976C202.127 37.736 202.043 37.472 202.043 37.184C202.043 36.872 202.145 36.596 202.349 36.356C202.553 36.116 202.841 36.008 203.213 36.032C203.561 36.044 203.921 36.068 204.293 36.104C204.665 36.14 205.037 36.176 205.409 36.212ZM199.991 45.428C200.363 45.428 200.675 45.29 200.927 45.014C201.179 44.738 201.305 44.396 201.305 43.988C201.305 43.448 201.179 43.04 200.927 42.764C200.675 42.476 200.261 42.332 199.685 42.332C199.241 42.332 198.887 42.452 198.623 42.692C198.359 42.932 198.227 43.28 198.227 43.736C198.227 44.24 198.365 44.648 198.641 44.96C198.917 45.272 199.367 45.428 199.991 45.428ZM202.385 41.612C202.697 41.612 202.955 41.498 203.159 41.27C203.375 41.03 203.483 40.712 203.483 40.316C203.483 39.92 203.369 39.614 203.141 39.398C202.925 39.17 202.673 39.056 202.385 39.056C201.845 39.056 201.461 39.176 201.233 39.416C201.017 39.656 200.909 39.992 200.909 40.424C200.909 40.748 201.023 41.03 201.251 41.27C201.491 41.498 201.869 41.612 202.385 41.612ZM195.689 46.544C196.109 46.544 196.433 46.43 196.661 46.202C196.901 45.962 197.021 45.656 197.021 45.284C197.021 44.828 196.919 44.498 196.715 44.294C196.511 44.09 196.145 43.988 195.617 43.988C195.245 43.988 194.957 44.102 194.753 44.33C194.561 44.546 194.465 44.816 194.465 45.14C194.465 45.572 194.585 45.914 194.825 46.166C195.065 46.418 195.353 46.544 195.689 46.544ZM266.733 48.2C266.553 46.556 266.391 44.756 266.247 42.8C266.115 40.832 266.013 38.87 265.941 36.914C265.905 35.954 265.899 35.024 265.923 34.124C265.947 33.224 266.001 32.432 266.085 31.748C267.057 32.036 267.807 32.168 268.335 32.144C268.863 32.108 269.205 31.904 269.361 31.532C269.541 31.1 269.433 30.686 269.037 30.29C268.653 29.882 267.813 29.456 266.517 29.012C266.733 28.484 267.021 27.944 267.381 27.392C267.753 26.84 268.137 26.396 268.533 26.06C269.253 27.044 269.835 27.668 270.279 27.932C270.735 28.184 271.161 28.16 271.557 27.86C271.941 27.584 272.043 27.122 271.863 26.474C271.683 25.814 271.341 25.16 270.837 24.512C271.329 24.296 271.995 24.122 272.835 23.99C273.675 23.858 274.401 23.792 275.013 23.792C276.681 23.792 278.133 23.972 279.369 24.332C280.605 24.68 281.631 25.196 282.447 25.88C283.263 26.552 283.869 27.368 284.265 28.328C284.673 29.276 284.877 30.356 284.877 31.568C284.877 32.9 284.613 34.07 284.085 35.078C283.557 36.086 282.825 36.878 281.889 37.454C280.953 38.018 279.873 38.3 278.649 38.3C277.617 38.3 276.747 38.12 276.039 37.76C275.343 37.388 274.815 36.878 274.455 36.23C274.107 35.582 273.933 34.832 273.933 33.98C273.933 32.768 274.293 31.802 275.013 31.082C275.733 30.35 276.633 29.984 277.713 29.984C278.589 29.984 279.279 30.2 279.783 30.632C280.299 31.064 280.557 31.562 280.557 32.126C280.557 32.45 280.473 32.714 280.305 32.918C280.149 33.11 279.909 33.206 279.585 33.206C279.369 33.206 279.201 33.164 279.081 33.08C278.973 32.984 278.871 32.876 278.775 32.756C278.691 32.624 278.577 32.516 278.433 32.432C278.289 32.336 278.073 32.288 277.785 32.288C277.413 32.288 277.131 32.432 276.939 32.72C276.759 33.008 276.669 33.344 276.669 33.728C276.669 34.352 276.867 34.874 277.263 35.294C277.659 35.714 278.169 35.924 278.793 35.924C279.837 35.924 280.659 35.54 281.259 34.772C281.871 33.992 282.177 32.984 282.177 31.748C282.177 30.356 281.799 29.228 281.043 28.364C280.299 27.5 279.249 27.068 277.893 27.068C276.813 27.068 275.847 27.344 274.995 27.896C274.155 28.436 273.441 29.228 272.853 30.272C272.277 31.316 271.845 32.576 271.557 34.052C271.317 35.348 271.143 36.38 271.035 37.148C270.939 37.904 270.909 38.486 270.945 38.894C270.993 39.302 271.101 39.608 271.269 39.812C271.437 40.016 271.665 40.208 271.953 40.388C272.169 40.508 272.427 40.652 272.727 40.82C273.027 40.976 273.357 41.144 273.717 41.324C273.849 41.372 273.981 41.432 274.113 41.504C274.257 41.576 274.401 41.642 274.545 41.702C274.713 41.774 274.881 41.852 275.049 41.936C275.229 42.02 275.409 42.104 275.589 42.188C275.733 42.248 275.871 42.314 276.003 42.386C276.147 42.446 276.285 42.506 276.417 42.566C276.573 42.638 276.717 42.71 276.849 42.782C276.981 42.854 277.113 42.92 277.245 42.98C277.353 43.028 277.455 43.076 277.551 43.124C277.659 43.172 277.761 43.22 277.857 43.268C277.965 43.316 278.073 43.364 278.181 43.412C279.549 44.072 280.671 44.624 281.547 45.068C282.423 45.512 283.101 45.914 283.581 46.274C284.061 46.622 284.397 46.976 284.589 47.336C284.781 47.684 284.877 48.092 284.877 48.56C284.877 48.968 284.733 49.334 284.445 49.658C284.157 49.982 283.749 50.144 283.221 50.144C282.993 50.144 282.735 50.102 282.447 50.018C282.171 49.946 281.799 49.79 281.331 49.55C280.875 49.31 280.263 48.956 279.495 48.488C278.727 48.02 277.743 47.396 276.543 46.616C275.355 45.836 273.885 44.864 272.133 43.7C271.485 43.268 270.981 43.112 270.621 43.232C270.273 43.34 270.045 43.676 269.937 44.24C269.781 44.996 269.667 45.77 269.595 46.562C269.523 47.342 269.433 47.984 269.325 48.488C269.205 49.004 269.055 49.4 268.875 49.676C268.695 49.94 268.413 50.072 268.029 50.072C267.597 50.072 267.291 49.916 267.111 49.604C266.931 49.292 266.805 48.824 266.733 48.2ZM268.353 47.264C268.029 47.264 267.777 47.186 267.597 47.03C267.429 46.862 267.345 46.544 267.345 46.076C267.345 45.68 267.417 45.41 267.561 45.266C267.717 45.122 267.957 45.068 268.281 45.104L268.353 47.264ZM267.273 41.576C267.057 41.552 266.883 41.48 266.751 41.36C266.619 41.24 266.553 40.976 266.553 40.568C266.553 40.112 266.619 39.818 266.751 39.686C266.895 39.554 267.153 39.5 267.525 39.524L267.273 41.576ZM280.305 42.872C279.729 42.872 279.273 42.722 278.937 42.422C278.601 42.122 278.433 41.72 278.433 41.216C278.433 40.532 278.583 40.028 278.883 39.704C279.183 39.368 279.621 39.2 280.197 39.2C280.833 39.2 281.313 39.35 281.637 39.65C281.973 39.938 282.141 40.388 282.141 41C282.141 41.588 281.985 42.05 281.673 42.386C281.373 42.71 280.917 42.872 280.305 42.872Z" fill="#3A7329"/>
<path d="M132.098 50.972C131.726 50.972 131.414 50.852 131.162 50.612C130.922 50.372 130.802 50.048 130.802 49.64C130.802 49.244 130.904 48.788 131.108 48.272C131.612 46.952 132.158 45.656 132.746 44.384C133.334 43.1 133.88 41.804 134.384 40.496C134.6 39.92 134.75 39.35 134.834 38.786C134.918 38.21 134.96 37.64 134.96 37.076C134.96 36.44 134.912 35.816 134.816 35.204C134.72 34.592 134.552 34.052 134.312 33.584C133.808 32.564 133.268 31.598 132.692 30.686C132.116 29.774 131.576 28.796 131.072 27.752C130.904 27.404 130.772 27.08 130.676 26.78C130.58 26.48 130.532 26.216 130.532 25.988C130.532 25.508 130.7 25.136 131.036 24.872C131.372 24.608 131.738 24.476 132.134 24.476C132.374 24.476 132.608 24.536 132.836 24.656C133.064 24.764 133.28 24.92 133.484 25.124C133.748 25.388 134.066 25.832 134.438 26.456C134.822 27.068 135.176 27.668 135.5 28.256C135.548 28.34 135.596 28.424 135.644 28.508C135.692 28.58 135.74 28.658 135.788 28.742C135.836 28.814 135.884 28.892 135.932 28.976C135.992 29.084 136.052 29.198 136.112 29.318C136.184 29.438 136.256 29.552 136.328 29.66C136.4 29.804 136.472 29.942 136.544 30.074C136.628 30.206 136.712 30.344 136.796 30.488C136.868 30.608 136.94 30.728 137.012 30.848C137.084 30.956 137.156 31.076 137.228 31.208C137.3 31.316 137.372 31.43 137.444 31.55C137.516 31.67 137.588 31.784 137.66 31.892C137.756 32.036 137.846 32.18 137.93 32.324C138.026 32.456 138.116 32.588 138.2 32.72C138.596 33.296 138.956 33.668 139.28 33.836C139.604 34.004 139.952 34.088 140.324 34.088C140.672 34.088 140.996 33.998 141.296 33.818C141.596 33.638 141.908 33.272 142.232 32.72C142.832 31.676 143.384 30.596 143.888 29.48C144.392 28.352 144.932 27.248 145.508 26.168C145.736 25.748 145.982 25.448 146.246 25.268C146.51 25.088 146.786 24.998 147.074 24.998C147.494 24.998 147.836 25.13 148.1 25.394C148.364 25.646 148.496 25.994 148.496 26.438C148.496 26.834 148.388 27.308 148.172 27.86C147.764 28.88 147.332 29.87 146.876 30.83C146.432 31.778 146 32.768 145.58 33.8C145.4 34.232 145.262 34.682 145.166 35.15C145.082 35.618 145.04 36.068 145.04 36.5C145.04 36.932 145.076 37.37 145.148 37.814C145.22 38.258 145.328 38.708 145.472 39.164C145.892 40.412 146.414 41.762 147.038 43.214C147.662 44.654 148.208 46.088 148.676 47.516C148.772 47.804 148.844 48.08 148.892 48.344C148.952 48.596 148.982 48.848 148.982 49.1C148.982 49.7 148.796 50.174 148.424 50.522C148.064 50.87 147.62 51.044 147.092 51.044C146.228 51.044 145.46 50.516 144.788 49.46C144.056 48.272 143.372 47.072 142.736 45.86C142.112 44.636 141.44 43.46 140.72 42.332C140.504 41.984 140.258 41.732 139.982 41.576C139.718 41.408 139.412 41.324 139.064 41.324C138.692 41.324 138.362 41.42 138.074 41.612C137.786 41.804 137.552 42.08 137.372 42.44C136.76 43.628 136.19 44.804 135.662 45.968C135.134 47.12 134.564 48.284 133.952 49.46C133.688 49.94 133.4 50.312 133.088 50.576C132.788 50.84 132.458 50.972 132.098 50.972ZM146.624 33.26C145.94 32.948 145.262 32.624 144.59 32.288C143.918 31.952 143.264 31.604 142.628 31.244C141.692 30.704 141.08 30.254 140.792 29.894C140.516 29.534 140.456 29.168 140.612 28.796C140.792 28.364 141.14 28.178 141.656 28.238C142.184 28.298 142.844 28.508 143.636 28.868C144.344 29.192 145.058 29.534 145.778 29.894C146.498 30.254 147.224 30.632 147.956 31.028C148.964 31.556 149.66 32.024 150.044 32.432C150.44 32.84 150.548 33.26 150.368 33.692C150.188 34.124 149.804 34.286 149.216 34.178C148.628 34.07 147.764 33.764 146.624 33.26ZM143.096 34.736L143.924 33.044C144.284 33.188 144.512 33.362 144.608 33.566C144.716 33.77 144.68 34.064 144.5 34.448C144.308 34.82 144.104 35 143.888 34.988C143.684 34.976 143.42 34.892 143.096 34.736ZM139.172 37.922C138.812 37.922 138.512 37.808 138.272 37.58C138.032 37.34 137.912 36.968 137.912 36.464C137.912 36.104 138.02 35.816 138.236 35.6C138.464 35.384 138.8 35.276 139.244 35.276C139.64 35.276 139.958 35.396 140.198 35.636C140.438 35.876 140.558 36.218 140.558 36.662C140.558 37.046 140.426 37.352 140.162 37.58C139.898 37.808 139.568 37.922 139.172 37.922ZM135.644 47.768C134.96 47.48 134.294 47.18 133.646 46.868C133.01 46.544 132.38 46.226 131.756 45.914C131.024 45.518 130.514 45.146 130.226 44.798C129.938 44.438 129.89 44.054 130.082 43.646C130.274 43.262 130.58 43.082 131 43.106C131.432 43.118 132.056 43.292 132.872 43.628C133.544 43.892 134.21 44.174 134.87 44.474C135.53 44.774 136.172 45.08 136.796 45.392C137.912 45.932 138.656 46.412 139.028 46.832C139.412 47.252 139.52 47.672 139.352 48.092C139.16 48.536 138.794 48.722 138.254 48.65C137.726 48.578 136.856 48.284 135.644 47.768ZM144.536 45.464C144.932 45.464 145.244 45.35 145.472 45.122C145.712 44.894 145.832 44.636 145.832 44.348C145.832 43.928 145.724 43.604 145.508 43.376C145.304 43.136 145.04 43.016 144.716 43.016C144.248 43.016 143.906 43.118 143.69 43.322C143.486 43.514 143.384 43.856 143.384 44.348C143.384 44.684 143.48 44.954 143.672 45.158C143.876 45.362 144.164 45.464 144.536 45.464ZM142.628 40.856C143.096 40.856 143.462 40.712 143.726 40.424C144.002 40.136 144.14 39.704 144.14 39.128C144.14 38.732 144.02 38.414 143.78 38.174C143.54 37.922 143.24 37.796 142.88 37.796C142.256 37.796 141.8 37.94 141.512 38.228C141.224 38.504 141.08 38.852 141.08 39.272C141.08 39.776 141.218 40.166 141.494 40.442C141.782 40.718 142.16 40.856 142.628 40.856ZM132.368 49.568C132.32 49.544 132.26 49.52 132.188 49.496C132.128 49.46 132.068 49.436 132.008 49.424C131.828 49.352 131.72 49.214 131.684 49.01C131.66 48.806 131.72 48.56 131.864 48.272C132.032 47.96 132.194 47.744 132.35 47.624C132.506 47.504 132.692 47.492 132.908 47.588C132.944 47.6 132.968 47.612 132.98 47.624C133.004 47.624 133.04 47.636 133.088 47.66C133.304 47.744 133.43 47.894 133.466 48.11C133.502 48.326 133.448 48.608 133.304 48.956C133.16 49.28 133.01 49.484 132.854 49.568C132.71 49.64 132.548 49.64 132.368 49.568ZM214.225 50.864C213.061 50.864 212.251 50.636 211.795 50.18C211.339 49.724 211.111 48.986 211.111 47.966C211.111 47.558 211.147 46.868 211.219 45.896C211.303 44.924 211.411 43.772 211.543 42.44C211.675 41.096 211.819 39.674 211.975 38.174C212.131 36.662 212.293 35.162 212.461 33.674C212.629 32.186 212.785 30.8 212.929 29.516C213.085 28.232 213.217 27.152 213.325 26.276C213.397 25.664 213.535 25.208 213.739 24.908C213.955 24.596 214.261 24.44 214.657 24.44C214.957 24.44 215.197 24.518 215.377 24.674C215.557 24.818 215.689 25.046 215.773 25.358C215.857 25.658 215.905 26.036 215.917 26.492C215.941 27.176 215.965 27.98 215.989 28.904C216.013 29.828 216.037 30.788 216.061 31.784C216.061 31.964 216.061 32.144 216.061 32.324C216.061 32.492 216.067 32.666 216.079 32.846C216.079 33.038 216.079 33.236 216.079 33.44C216.079 33.632 216.085 33.83 216.097 34.034C216.109 34.298 216.115 34.556 216.115 34.808C216.115 35.06 216.121 35.312 216.133 35.564C216.133 35.684 216.133 35.804 216.133 35.924C216.145 36.044 216.151 36.164 216.151 36.284C216.151 36.392 216.151 36.506 216.151 36.626C216.163 36.758 216.169 36.89 216.169 37.022C216.169 37.142 216.169 37.268 216.169 37.4C216.181 37.52 216.187 37.64 216.187 37.76C216.211 38.204 216.229 38.618 216.241 39.002C216.253 39.386 216.265 39.728 216.277 40.028C216.313 40.784 216.457 41.36 216.709 41.756C216.961 42.152 217.357 42.476 217.897 42.728C218.329 42.932 218.773 43.142 219.229 43.358C219.685 43.562 220.147 43.772 220.615 43.988C221.083 44.204 221.551 44.42 222.019 44.636C222.499 44.852 222.973 45.068 223.441 45.284C224.041 45.56 224.533 45.842 224.917 46.13C225.301 46.418 225.583 46.736 225.763 47.084C225.943 47.432 226.033 47.828 226.033 48.272C226.033 48.884 225.829 49.388 225.421 49.784C225.013 50.18 224.401 50.408 223.585 50.468C223.285 50.48 222.985 50.498 222.685 50.522C222.397 50.558 222.109 50.588 221.821 50.612C221.929 49.616 221.965 48.848 221.929 48.308C221.893 47.756 221.791 47.372 221.623 47.156C221.455 46.94 221.233 46.832 220.957 46.832C220.645 46.832 220.405 46.946 220.237 47.174C220.081 47.402 219.973 47.798 219.913 48.362C219.865 48.926 219.841 49.712 219.841 50.72C219.469 50.732 219.085 50.744 218.689 50.756C218.305 50.78 217.921 50.792 217.537 50.792C217.537 49.328 217.483 48.236 217.375 47.516C217.279 46.784 217.135 46.304 216.943 46.076C216.751 45.848 216.517 45.728 216.241 45.716C215.917 45.716 215.659 45.848 215.467 46.112C215.275 46.376 215.155 46.88 215.107 47.624C215.071 48.356 215.125 49.424 215.269 50.828C215.089 50.84 214.915 50.846 214.747 50.846C214.579 50.858 214.405 50.864 214.225 50.864ZM213.037 41.144C211.801 41.168 210.847 41.162 210.175 41.126C209.503 41.078 209.035 40.958 208.771 40.766C208.519 40.562 208.393 40.244 208.393 39.812C208.393 39.164 208.729 38.762 209.401 38.606C210.073 38.438 211.345 38.42 213.217 38.552L213.037 41.144ZM214.801 31.568V28.832C216.373 28.844 217.567 28.88 218.383 28.94C219.199 29 219.751 29.126 220.039 29.318C220.339 29.51 220.489 29.804 220.489 30.2C220.489 30.644 220.333 30.968 220.021 31.172C219.721 31.364 219.157 31.484 218.329 31.532C217.513 31.58 216.337 31.592 214.801 31.568ZM215.125 34.268L215.089 31.964C215.269 31.964 215.419 32 215.539 32.072C215.671 32.144 215.767 32.27 215.827 32.45C215.887 32.618 215.917 32.852 215.917 33.152C215.917 33.584 215.851 33.878 215.719 34.034C215.599 34.19 215.401 34.268 215.125 34.268ZM224.413 48.416L222.289 48.056C222.289 47.72 222.325 47.444 222.397 47.228C222.469 47 222.577 46.832 222.721 46.724C222.877 46.616 223.069 46.556 223.297 46.544C223.717 46.508 223.999 46.562 224.143 46.706C224.299 46.838 224.383 47.048 224.395 47.336C224.407 47.624 224.413 47.984 224.413 48.416ZM287.176 46.652C287.404 45.764 287.692 44.66 288.04 43.34C288.388 42.008 288.766 40.592 289.174 39.092C289.582 37.58 289.984 36.122 290.38 34.718C291.088 35.006 291.736 35.228 292.324 35.384C292.924 35.528 293.404 35.546 293.764 35.438C294.124 35.33 294.304 35.036 294.304 34.556C294.304 34.232 294.07 33.92 293.602 33.62C293.146 33.32 292.258 33.008 290.938 32.684C291.046 32.264 291.154 31.868 291.262 31.496C291.37 31.112 291.472 30.752 291.568 30.416C292.396 30.764 293.182 31.046 293.926 31.262C294.67 31.478 295.276 31.544 295.744 31.46C296.212 31.376 296.446 31.064 296.446 30.524C296.446 30.128 296.146 29.768 295.546 29.444C294.946 29.12 293.818 28.772 292.162 28.4C292.174 28.352 292.18 28.316 292.18 28.292C292.192 28.256 292.204 28.214 292.216 28.166C292.528 27.122 293.098 26.312 293.926 25.736C294.766 25.16 295.912 24.884 297.364 24.908C298.852 24.908 300.016 25.238 300.856 25.898C301.696 26.546 302.224 27.584 302.44 29.012C302.464 29.192 302.488 29.384 302.512 29.588C302.548 29.78 302.578 29.984 302.602 30.2C302.626 30.392 302.65 30.59 302.674 30.794C302.71 30.998 302.74 31.208 302.764 31.424C302.788 31.544 302.806 31.664 302.818 31.784C302.842 31.904 302.86 32.024 302.872 32.144C302.896 32.264 302.914 32.39 302.926 32.522C302.962 32.798 302.998 33.08 303.034 33.368C303.07 33.656 303.112 33.95 303.16 34.25C303.184 34.43 303.208 34.616 303.232 34.808C303.268 34.988 303.292 35.18 303.304 35.384C303.328 35.528 303.346 35.678 303.358 35.834C303.382 35.978 303.406 36.128 303.43 36.284C303.454 36.428 303.472 36.578 303.484 36.734C303.628 37.778 303.766 38.84 303.898 39.92C304.042 41 304.18 42.062 304.312 43.106C304.444 44.15 304.564 45.14 304.672 46.076C304.792 47.012 304.9 47.864 304.996 48.632C305.08 49.292 304.978 49.844 304.69 50.288C304.402 50.744 303.988 50.972 303.448 50.972C302.98 50.972 302.578 50.792 302.242 50.432C301.918 50.084 301.72 49.568 301.648 48.884C301.42 46.724 301.216 44.48 301.036 42.152C300.856 39.812 300.658 37.448 300.442 35.06C300.37 34.232 300.22 33.656 299.992 33.332C299.764 33.008 299.386 32.846 298.858 32.846C298.378 32.846 297.922 32.99 297.49 33.278C297.07 33.566 296.596 34.244 296.068 35.312C295.048 37.376 294.034 39.488 293.026 41.648C292.03 43.808 291.052 45.884 290.092 47.876C289.852 48.368 289.588 48.728 289.3 48.956C289.012 49.172 288.688 49.28 288.328 49.28C287.812 49.28 287.44 49.034 287.212 48.542C286.996 48.05 286.984 47.42 287.176 46.652ZM291.352 43.7L292.036 41.144C293.572 41.084 295.102 41.024 296.626 40.964C298.15 40.904 299.596 40.856 300.964 40.82C301.54 40.796 302.014 40.886 302.386 41.09C302.758 41.282 302.944 41.6 302.944 42.044C302.944 42.524 302.812 42.872 302.548 43.088C302.296 43.304 301.924 43.424 301.432 43.448C299.752 43.52 298.09 43.574 296.446 43.61C294.802 43.646 293.104 43.676 291.352 43.7ZM303.484 47.084C303.16 47.084 302.872 46.982 302.62 46.778C302.38 46.574 302.26 46.292 302.26 45.932C302.26 45.572 302.368 45.296 302.584 45.104C302.812 44.912 303.112 44.816 303.484 44.816C303.556 44.816 303.658 44.816 303.79 44.816C303.922 44.816 304.048 44.816 304.168 44.816V47.084C304.06 47.096 303.946 47.102 303.826 47.102C303.706 47.09 303.592 47.084 303.484 47.084ZM289.462 42.206C288.382 41.894 287.548 41.618 286.96 41.378C286.372 41.138 285.964 40.904 285.736 40.676C285.496 40.436 285.376 40.166 285.376 39.866C285.376 39.29 285.61 38.948 286.078 38.84C286.534 38.732 287.134 38.78 287.878 38.984C288.622 39.188 289.402 39.476 290.218 39.848L289.462 42.206ZM290.488 44.312C290.188 44.216 289.93 44.114 289.714 44.006C289.51 43.898 289.354 43.772 289.246 43.628C289.138 43.484 289.084 43.304 289.084 43.088C289.084 42.632 289.168 42.272 289.336 42.008C289.504 41.744 289.744 41.582 290.056 41.522C290.38 41.462 290.776 41.516 291.244 41.684L290.488 44.312ZM301.792 39.452L301.54 36.968C301.972 36.92 302.326 36.92 302.602 36.968C302.878 37.016 303.082 37.148 303.214 37.364C303.346 37.568 303.412 37.892 303.412 38.336C303.412 38.768 303.274 39.044 302.998 39.164C302.722 39.284 302.32 39.38 301.792 39.452ZM303.07 43.34L302.944 40.712C303.952 40.676 304.744 40.664 305.32 40.676C305.908 40.688 306.322 40.796 306.562 41C306.814 41.192 306.94 41.558 306.94 42.098C306.94 42.59 306.676 42.92 306.148 43.088C305.632 43.244 304.606 43.328 303.07 43.34Z" fill="#ECAD71"/>
<path d="M160.634 40.892C160.55 40.892 160.466 40.892 160.382 40.892C160.31 40.892 160.226 40.892 160.13 40.892C159.806 40.892 159.56 40.802 159.392 40.622C159.236 40.442 159.158 40.256 159.158 40.064C159.158 39.86 159.236 39.68 159.392 39.524C159.56 39.356 159.794 39.272 160.094 39.272C160.202 39.272 160.316 39.272 160.436 39.272C160.556 39.272 160.67 39.272 160.778 39.272C161.066 39.272 161.276 39.344 161.408 39.488C161.54 39.62 161.606 39.788 161.606 39.992C161.606 40.208 161.522 40.412 161.354 40.604C161.186 40.796 160.946 40.892 160.634 40.892ZM159.446 35.06C159.374 35.06 159.302 35.06 159.23 35.06C159.158 35.06 159.086 35.06 159.014 35.06C158.606 35.06 158.336 34.946 158.204 34.718C158.072 34.478 158.006 34.208 158.006 33.908C158.006 33.668 158.078 33.452 158.222 33.26C158.366 33.068 158.57 32.972 158.834 32.972C158.942 32.972 159.056 32.972 159.176 32.972C159.296 32.972 159.41 32.972 159.518 32.972C159.806 32.972 160.04 33.074 160.22 33.278C160.4 33.47 160.49 33.74 160.49 34.088C160.49 34.412 160.43 34.658 160.31 34.826C160.202 34.982 159.914 35.06 159.446 35.06ZM153.758 30.596C154.334 30.596 154.766 30.752 155.054 31.064C155.342 31.364 155.486 31.844 155.486 32.504C155.486 33.008 155.348 33.392 155.072 33.656C154.796 33.92 154.394 34.052 153.866 34.052C153.254 34.052 152.786 33.878 152.462 33.53C152.15 33.17 151.994 32.684 151.994 32.072C151.994 31.568 152.156 31.196 152.48 30.956C152.816 30.716 153.242 30.596 153.758 30.596ZM150.878 48.02C150.878 47.6 150.98 47.294 151.184 47.102C151.4 46.898 151.73 46.724 152.174 46.58C152.45 46.484 152.738 46.406 153.038 46.346C153.35 46.274 153.674 46.184 154.01 46.076C154.55 45.896 154.94 45.692 155.18 45.464C155.42 45.236 155.582 44.9 155.666 44.456C155.69 44.348 155.708 44.246 155.72 44.15C155.744 44.054 155.762 43.952 155.774 43.844C157.13 44.108 158.048 44.15 158.528 43.97C159.008 43.778 159.248 43.448 159.248 42.98C159.26 42.632 159.056 42.368 158.636 42.188C158.228 42.008 157.406 41.864 156.17 41.756C156.242 41.396 156.314 41.042 156.386 40.694C156.47 40.346 156.53 39.992 156.566 39.632C157.37 39.68 158.006 39.68 158.474 39.632C158.942 39.572 159.272 39.464 159.464 39.308C159.668 39.152 159.77 38.93 159.77 38.642C159.77 38.27 159.566 37.988 159.158 37.796C158.762 37.592 158.03 37.436 156.962 37.328C157.19 36.032 157.406 34.73 157.61 33.422C157.814 32.102 158.006 30.788 158.186 29.48C158.258 28.94 158.216 28.598 158.06 28.454C157.904 28.31 157.61 28.256 157.178 28.292C156.542 28.304 156.02 28.334 155.612 28.382C155.216 28.43 154.73 28.472 154.154 28.508C153.494 28.52 152.954 28.448 152.534 28.292C152.126 28.124 151.922 27.752 151.922 27.176C151.922 26.684 152.12 26.312 152.516 26.06C152.924 25.808 153.566 25.64 154.442 25.556C155.738 25.424 157.262 25.28 159.014 25.124C160.766 24.956 162.422 24.824 163.982 24.728C164.762 24.668 165.326 24.716 165.674 24.872C166.034 25.016 166.214 25.34 166.214 25.844C166.214 26.276 166.058 26.618 165.746 26.87C165.434 27.122 165.026 27.344 164.522 27.536C164.126 27.692 163.7 27.836 163.244 27.968C162.8 28.1 162.278 28.28 161.678 28.508C161.246 28.664 160.964 28.85 160.832 29.066C160.712 29.27 160.67 29.552 160.706 29.912C160.922 32.504 161.18 35.096 161.48 37.688C161.78 40.28 162.11 42.872 162.47 45.464C162.53 45.86 162.644 46.16 162.812 46.364C162.992 46.556 163.262 46.7 163.622 46.796C163.934 46.868 164.21 46.922 164.45 46.958C164.69 46.994 164.954 47.048 165.242 47.12C165.59 47.192 165.902 47.312 166.178 47.48C166.466 47.636 166.61 47.924 166.61 48.344C166.61 48.716 166.514 48.998 166.322 49.19C166.13 49.37 165.866 49.49 165.53 49.55C165.194 49.61 164.81 49.64 164.378 49.64C164.222 49.64 163.97 49.64 163.622 49.64C163.286 49.628 162.896 49.616 162.452 49.604C162.32 49.604 162.182 49.598 162.038 49.586C161.894 49.574 161.744 49.568 161.588 49.568C161.444 49.568 161.294 49.568 161.138 49.568C160.982 49.568 160.814 49.568 160.634 49.568C160.466 49.556 160.298 49.55 160.13 49.55C159.962 49.538 159.788 49.532 159.608 49.532C159.32 49.52 159.026 49.514 158.726 49.514C158.438 49.514 158.15 49.508 157.862 49.496C157.67 49.484 157.472 49.478 157.268 49.478C157.076 49.466 156.884 49.46 156.692 49.46C156.512 49.448 156.326 49.442 156.134 49.442C156.002 49.442 155.864 49.442 155.72 49.442C155.588 49.43 155.456 49.424 155.324 49.424C155.192 49.412 155.066 49.406 154.946 49.406C154.526 49.382 154.148 49.364 153.812 49.352C153.488 49.34 153.23 49.328 153.038 49.316C152.39 49.28 151.868 49.178 151.472 49.01C151.076 48.83 150.878 48.5 150.878 48.02ZM232.307 49.208C232.151 49.208 232.001 49.178 231.857 49.118C231.713 49.058 231.575 48.968 231.443 48.848C231.347 48.752 231.263 48.632 231.191 48.488C231.119 48.344 231.053 48.146 230.993 47.894C230.945 47.63 230.903 47.27 230.867 46.814C230.831 46.358 230.795 45.764 230.759 45.032C230.747 44.732 230.735 44.444 230.723 44.168C230.711 43.892 230.699 43.622 230.687 43.358C230.675 43.13 230.663 42.908 230.651 42.692C230.651 42.464 230.645 42.242 230.633 42.026C230.621 41.714 230.609 41.414 230.597 41.126C230.597 40.838 230.585 40.556 230.561 40.28C230.561 40.172 230.555 40.064 230.543 39.956C230.543 39.848 230.543 39.74 230.543 39.632C230.543 39.512 230.537 39.404 230.525 39.308C230.525 39.188 230.519 39.074 230.507 38.966C230.507 38.846 230.501 38.732 230.489 38.624C230.489 38.504 230.483 38.39 230.471 38.282C230.447 37.682 230.417 37.07 230.381 36.446C230.357 35.81 230.327 35.144 230.291 34.448C230.255 33.716 230.081 33.14 229.769 32.72C229.469 32.3 229.091 31.97 228.635 31.73C228.179 31.478 227.693 31.256 227.177 31.064C226.673 30.872 226.199 30.644 225.755 30.38C225.311 30.116 224.945 29.756 224.657 29.3C224.381 28.832 224.243 28.208 224.243 27.428C224.243 26.768 224.345 26.228 224.549 25.808C224.753 25.376 225.077 25.058 225.521 24.854C225.977 24.65 226.583 24.548 227.339 24.548C227.231 25.808 227.267 26.666 227.447 27.122C227.639 27.566 227.915 27.788 228.275 27.788C228.671 27.788 228.971 27.584 229.175 27.176C229.379 26.756 229.487 25.892 229.499 24.584C229.823 24.584 230.159 24.584 230.507 24.584C230.855 24.584 231.191 24.584 231.515 24.584C231.479 25.652 231.479 26.474 231.515 27.05C231.563 27.614 231.665 28.004 231.821 28.22C231.977 28.436 232.199 28.544 232.487 28.544C232.739 28.544 232.955 28.442 233.135 28.238C233.327 28.022 233.471 27.632 233.567 27.068C233.663 26.504 233.711 25.688 233.711 24.62C235.319 24.62 236.615 24.638 237.599 24.674C238.583 24.698 239.327 24.758 239.831 24.854C240.347 24.938 240.689 25.082 240.857 25.286C241.037 25.478 241.127 25.748 241.127 26.096C241.127 26.468 240.971 26.75 240.659 26.942C240.359 27.122 239.963 27.26 239.471 27.356C238.991 27.44 238.475 27.524 237.923 27.608C237.383 27.68 236.861 27.794 236.357 27.95C235.865 28.094 235.451 28.322 235.115 28.634C234.791 28.946 234.611 29.39 234.575 29.966C234.359 33.17 234.191 35.864 234.071 38.048C233.951 40.22 233.849 41.996 233.765 43.376C233.693 44.744 233.627 45.806 233.567 46.562C233.507 47.318 233.435 47.87 233.351 48.218C233.267 48.554 233.159 48.788 233.027 48.92C232.955 49.004 232.847 49.076 232.703 49.136C232.571 49.184 232.439 49.208 232.307 49.208ZM237.707 33.404C237.191 33.404 236.729 33.23 236.321 32.882C235.925 32.534 235.727 32.036 235.727 31.388C235.727 30.716 235.907 30.176 236.267 29.768C236.627 29.36 237.191 29.156 237.959 29.156C238.559 29.156 239.045 29.354 239.417 29.75C239.789 30.134 239.975 30.596 239.975 31.136C239.975 31.928 239.789 32.504 239.417 32.864C239.057 33.224 238.487 33.404 237.707 33.404ZM232.955 45.14L232.847 42.548C234.275 42.488 235.373 42.464 236.141 42.476C236.909 42.488 237.437 42.578 237.725 42.746C238.025 42.914 238.175 43.196 238.175 43.592C238.175 44.072 238.031 44.414 237.743 44.618C237.467 44.81 236.951 44.936 236.195 44.996C235.451 45.044 234.371 45.092 232.955 45.14ZM231.515 35.348L231.479 38.084C229.931 38.072 228.737 38.042 227.897 37.994C227.057 37.946 226.469 37.82 226.133 37.616C225.809 37.4 225.647 37.052 225.647 36.572C225.647 36.08 225.833 35.744 226.205 35.564C226.589 35.372 227.213 35.276 228.077 35.276C228.941 35.264 230.087 35.288 231.515 35.348Z" fill="#F35A3F"/>
<mask id="mask0_840_2302" style="mask-type:alpha" maskUnits="userSpaceOnUse" x="0" y="0" width="76" height="72">
<ellipse cx="37.9172" cy="36" rx="37.9172" ry="36" fill="#D5AC83"/>
</mask>
<g mask="url(#mask0_840_2302)">
<ellipse cx="37.9172" cy="36" rx="37.9172" ry="36" fill="#D5AC83"/>
<path d="M77.3343 47.7168C77.3343 46.8884 76.6627 46.2168 75.8343 46.2168H37.2781H0C-0.828427 46.2168 -1.5 46.8884 -1.5 47.7168C-1.5 68.4999 16.2219 85.2168 37.9172 85.2168C59.6124 85.2168 77.3343 68.4999 77.3343 47.7168Z" fill="#FEAE89" stroke="#481E0B" stroke-width="3" stroke-linejoin="round"/>
<path d="M4.47314 53.041H15.7631M5.32522 60.2836H22.7927M74.769 53.041H62.201M71.7868 60.2836H56.4495" stroke="#481E0B" stroke-width="3" stroke-linecap="round" stroke-linejoin="round"/>
<path d="M32.9425 17.1925C27.6395 19.3546 19.7802 23.658 19.7802 23.658L14.458 20.6947C14.458 20.6947 14.3099 20.3289 30.9939 13.4322C47.7991 6.48544 48.1958 7.46395 48.1958 7.46395L47.3845 12.4836C47.3845 12.4836 38.4357 14.9529 32.9425 17.1925Z" fill="#F35A3F"/>
<path d="M32.9427 17.1926C19.3123 22.8529 19.7077 23.8296 19.7077 23.8296C19.7077 23.8296 20.9932 27.0054 34.6238 21.3455C49.1078 15.3312 47.9228 12.408 47.9228 12.408C47.9228 12.408 47.4245 11.1788 32.9427 17.1926Z" fill="#2B8E49"/>
<path d="M20.083 19.8402C19.6793 20.2476 19.5319 23.8168 19.5133 24.0518C19.5133 24.0518 27.6572 19.7495 32.7249 17.708C38.4179 15.4147 48.1443 12.604 48.1443 12.604L48.1441 12.6035C47.3105 12.0527 45.0266 10.1699 44.7327 10.1462C44.4388 10.1225 42.7378 12.944 42.7378 12.944C42.7378 12.944 40.4401 11.1309 40.0389 11.1933C39.6377 11.2558 38.4395 14.9683 38.4395 14.9683C38.4395 14.9683 35.1765 12.8778 34.6878 13.0752C34.1991 13.2726 32.8442 16.949 32.8442 16.949C32.8442 16.949 29.1949 15.3089 28.8249 15.4485C28.4549 15.588 27.2256 19.2234 27.2256 19.2234C27.2256 19.2234 24.7479 17.668 24.137 17.9148C23.5261 18.1616 23.0727 20.9045 23.0727 20.9045C23.0727 20.9045 20.4867 19.4328 20.083 19.8402Z" fill="#201107"/>
<path d="M31.0874 12.2575C13.9873 19.1797 14.6301 20.7676 14.6301 20.7676C16.313 22.1025 17.1711 23.6759 19.3502 24.2588C21.7807 24.909 25.8544 24.3269 34.5485 20.8075C50.6715 14.2809 48.7084 12.9432 48.7081 6.97262C48.7081 6.97262 48.0653 5.38475 31.0874 12.2575Z" stroke="#3F220F" stroke-width="3" stroke-linecap="round" stroke-linejoin="round"/>
<path d="M27.7514 4.3666C24.1356 5.8303 26.2017 14.2342 26.2017 14.2342L36.3396 10.1304C36.3396 10.1304 31.66 2.78436 27.7514 4.3666Z" fill="#ECAD71" stroke="#3F220F" stroke-width="3"/>
<path d="M49.207 48.5792V77.5392H43.2426H33.4437H27.4792V48.5442H20.8757C13.2071 48.5442 13.2069 44.9827 13.2071 40.5894C13.2072 37.8273 13.207 36.0596 13.2071 32.9661C13.2072 28.7677 16.6153 28.7677 16.6153 28.7677C16.6153 28.7677 20.2366 28.7677 20.2366 32.9661V40.5894C20.2366 42.6886 20.2368 42.9096 22.4733 42.9096H27.4792V29.5896C27.4792 29.5896 27.4792 22.0337 33.4437 19.2959C34.7633 18.6902 36.375 18.3203 38.3431 18.3203C40.3113 18.3203 41.9229 18.6902 43.2426 19.2959C49.207 22.0337 49.207 29.5896 49.207 29.5896V42.9445H53.3609C55.5976 42.9445 55.5976 42.5026 55.5976 40.6244V33.0011C55.5976 28.8027 59.0059 28.8027 59.0059 28.8027C59.0059 28.8027 62.6272 28.8027 62.6272 33.0011V40.6244C62.6272 45.1542 62.6272 48.5792 56.4496 48.5792H49.207Z" fill="#3A7329"/>
<path d="M49.207 48.5792V77.5392H43.2426M49.207 48.5792C49.207 48.5792 53.6212 48.5792 56.4496 48.5792C62.6272 48.5792 62.6272 45.1542 62.6272 40.6244C62.6272 37.8623 62.6272 35.6526 62.6272 33.0011C62.6272 28.8027 59.0059 28.8027 59.0059 28.8027C59.0059 28.8027 55.5976 28.8027 55.5976 33.0011C55.5976 34.1059 55.5976 38.7462 55.5976 40.6244C55.5976 42.5026 55.5976 42.9445 53.3609 42.9445C51.7387 42.9445 49.207 42.9445 49.207 42.9445M49.207 48.5792V42.9445M49.207 42.9445V29.5896C49.207 29.5896 49.207 22.0337 43.2426 19.2959M27.4792 48.5442V77.5392H33.4437M27.4792 48.5442C27.4792 48.5442 23.4545 48.5442 20.8757 48.5442C13.2071 48.5442 13.2069 44.9827 13.2071 40.5894C13.2072 37.8273 13.207 36.0596 13.2071 32.9661C13.2072 28.7677 16.6153 28.7677 16.6153 28.7677C16.6153 28.7677 20.2366 28.7677 20.2366 32.9661C20.2366 35.8386 20.2366 38.6136 20.2366 40.5894C20.2366 42.6886 20.2368 42.9096 22.4733 42.9096C24.7099 42.9096 27.4792 42.9096 27.4792 42.9096M27.4792 48.5442V42.9096M27.4792 42.9096V29.5896C27.4792 29.5896 27.4792 22.0337 33.4437 19.2959M33.4437 77.5392V19.2959M33.4437 77.5392H43.2426M33.4437 19.2959C34.7633 18.6902 36.375 18.3203 38.3431 18.3203C40.3113 18.3203 41.9229 18.6902 43.2426 19.2959M43.2426 19.2959V77.5392" stroke="#162F0E" stroke-width="3" stroke-linejoin="round"/>
</g>
</svg>
