<svg width="223" height="127" viewBox="0 0 223 127" fill="none" xmlns="http://www.w3.org/2000/svg">
<mask id="mask0_840_2302" style="mask-type:alpha" maskUnits="userSpaceOnUse" x="73" y="0" width="77" height="72">
<ellipse cx="111.5" cy="36" rx="37.9172" ry="36" fill="#D5AC83"/>
</mask>
<g mask="url(#mask0_840_2302)">
<ellipse cx="111.5" cy="36" rx="37.9172" ry="36" fill="#D5AC83"/>
<path d="M150.917 47.7168C150.917 46.8884 150.246 46.2168 149.417 46.2168H110.861H73.583C72.7546 46.2168 72.083 46.8884 72.083 47.7168C72.083 68.4999 89.805 85.2168 111.5 85.2168C133.195 85.2168 150.917 68.4999 150.917 47.7168Z" fill="#FEAE89" stroke="#481E0B" stroke-width="3" stroke-linejoin="round"/>
<path d="M78.0562 53.041H89.3461M78.9082 60.2836H96.3757M148.352 53.041H135.784M145.37 60.2836H130.032" stroke="#481E0B" stroke-width="3" stroke-linecap="round" stroke-linejoin="round"/>
<path d="M106.526 17.1925C101.222 19.3546 93.3632 23.658 93.3632 23.658L88.041 20.6947C88.041 20.6947 87.8929 20.3289 104.577 13.4322C121.382 6.48544 121.779 7.46395 121.779 7.46395L120.968 12.4836C120.968 12.4836 112.019 14.9529 106.526 17.1925Z" fill="#F35A3F"/>
<path d="M106.526 17.1926C92.8953 22.8529 93.2907 23.8296 93.2907 23.8296C93.2907 23.8296 94.5762 27.0054 108.207 21.3455C122.691 15.3312 121.506 12.408 121.506 12.408C121.506 12.408 121.008 11.1788 106.526 17.1926Z" fill="#2B8E49"/>
<path d="M93.666 19.8402C93.2623 20.2476 93.1149 23.8168 93.0963 24.0518C93.0963 24.0518 101.24 19.7495 106.308 17.708C112.001 15.4147 121.727 12.604 121.727 12.604L121.727 12.6035C120.893 12.0527 118.61 10.1699 118.316 10.1462C118.022 10.1225 116.321 12.944 116.321 12.944C116.321 12.944 114.023 11.1309 113.622 11.1933C113.221 11.2558 112.023 14.9683 112.023 14.9683C112.023 14.9683 108.76 12.8778 108.271 13.0752C107.782 13.2726 106.427 16.949 106.427 16.949C106.427 16.949 102.778 15.3089 102.408 15.4485C102.038 15.588 100.809 19.2234 100.809 19.2234C100.809 19.2234 98.3309 17.668 97.72 17.9148C97.1091 18.1616 96.6557 20.9045 96.6557 20.9045C96.6557 20.9045 94.0697 19.4328 93.666 19.8402Z" fill="#201107"/>
<path d="M104.67 12.2575C87.5703 19.1797 88.2131 20.7676 88.2131 20.7676C89.896 22.1025 90.7541 23.6759 92.9332 24.2588C95.3637 24.909 99.4374 24.3269 108.131 20.8075C124.254 14.2809 122.291 12.9432 122.291 6.97262C122.291 6.97262 121.648 5.38475 104.67 12.2575Z" stroke="#3F220F" stroke-width="3" stroke-linecap="round" stroke-linejoin="round"/>
<path d="M101.334 4.3666C97.7186 5.8303 99.7847 14.2342 99.7847 14.2342L109.923 10.1304C109.923 10.1304 105.243 2.78436 101.334 4.3666Z" fill="#ECAD71" stroke="#3F220F" stroke-width="3"/>
<path d="M122.79 48.5792V77.5392H116.826H107.027H101.062V48.5442H94.4587C86.7901 48.5442 86.7899 44.9827 86.7901 40.5894C86.7902 37.8273 86.79 36.0596 86.7901 32.9661C86.7902 28.7677 90.1983 28.7677 90.1983 28.7677C90.1983 28.7677 93.8196 28.7677 93.8196 32.9661V40.5894C93.8196 42.6886 93.8198 42.9096 96.0563 42.9096H101.062V29.5896C101.062 29.5896 101.062 22.0337 107.027 19.2959C108.346 18.6902 109.958 18.3203 111.926 18.3203C113.894 18.3203 115.506 18.6902 116.826 19.2959C122.79 22.0337 122.79 29.5896 122.79 29.5896V42.9445H126.944C129.181 42.9445 129.181 42.5026 129.181 40.6244V33.0011C129.181 28.8027 132.589 28.8027 132.589 28.8027C132.589 28.8027 136.21 28.8027 136.21 33.0011V40.6244C136.21 45.1542 136.21 48.5792 130.033 48.5792H122.79Z" fill="#3A7329"/>
<path d="M122.79 48.5792V77.5392H116.826M122.79 48.5792C122.79 48.5792 127.204 48.5792 130.033 48.5792C136.21 48.5792 136.21 45.1542 136.21 40.6244C136.21 37.8623 136.21 35.6526 136.21 33.0011C136.21 28.8027 132.589 28.8027 132.589 28.8027C132.589 28.8027 129.181 28.8027 129.181 33.0011C129.181 34.1059 129.181 38.7462 129.181 40.6244C129.181 42.5026 129.181 42.9445 126.944 42.9445C125.322 42.9445 122.79 42.9445 122.79 42.9445M122.79 48.5792V42.9445M122.79 42.9445V29.5896C122.79 29.5896 122.79 22.0337 116.826 19.2959M101.062 48.5442V77.5392H107.027M101.062 48.5442C101.062 48.5442 97.0375 48.5442 94.4587 48.5442C86.7901 48.5442 86.7899 44.9827 86.7901 40.5894C86.7902 37.8273 86.79 36.0596 86.7901 32.9661C86.7902 28.7677 90.1983 28.7677 90.1983 28.7677C90.1983 28.7677 93.8196 28.7677 93.8196 32.9661C93.8196 35.8386 93.8196 38.6136 93.8196 40.5894C93.8196 42.6886 93.8198 42.9096 96.0563 42.9096C98.2929 42.9096 101.062 42.9096 101.062 42.9096M101.062 48.5442V42.9096M101.062 42.9096V29.5896C101.062 29.5896 101.062 22.0337 107.027 19.2959M107.027 77.5392V19.2959M107.027 77.5392H116.826M107.027 19.2959C108.346 18.6902 109.958 18.3203 111.926 18.3203C113.894 18.3203 115.506 18.6902 116.826 19.2959M116.826 19.2959V77.5392" stroke="#162F0E" stroke-width="3" stroke-linejoin="round"/>
</g>
<path d="M1.548 111.808C1.572 111.34 1.602 110.866 1.638 110.386C1.674 109.894 1.716 109.408 1.764 108.928C2.652 108.964 3.384 108.958 3.96 108.91C4.536 108.85 4.962 108.73 5.238 108.55C5.514 108.358 5.652 108.088 5.652 107.74C5.652 107.236 5.328 106.918 4.68 106.786C4.032 106.642 3.12 106.564 1.944 106.552C1.968 106.12 2.004 105.694 2.052 105.274C2.1 104.854 2.148 104.428 2.196 103.996C3.288 104.26 4.158 104.374 4.806 104.338C5.466 104.302 5.796 103.918 5.796 103.186C5.796 102.778 5.544 102.478 5.04 102.286C4.536 102.082 3.66 101.92 2.412 101.8C2.508 101.056 2.598 100.312 2.682 99.568C2.778 98.824 2.88 98.068 2.988 97.3C3.204 95.716 3.69 94.558 4.446 93.826C5.202 93.094 6.216 92.728 7.488 92.728C8.676 92.728 9.552 93.01 10.116 93.574C10.692 94.126 11.124 94.852 11.412 95.752C11.496 96.004 11.574 96.256 11.646 96.508C11.73 96.748 11.808 96.988 11.88 97.228C11.94 97.396 11.994 97.57 12.042 97.75C12.102 97.918 12.156 98.086 12.204 98.254C12.252 98.41 12.3 98.572 12.348 98.74C12.396 98.896 12.444 99.058 12.492 99.226C12.552 99.442 12.618 99.658 12.69 99.874C12.762 100.09 12.828 100.312 12.888 100.54C12.936 100.696 12.978 100.852 13.014 101.008C13.062 101.152 13.11 101.302 13.158 101.458C13.218 101.614 13.272 101.77 13.32 101.926C13.368 102.082 13.416 102.244 13.464 102.412C13.608 102.904 13.758 103.408 13.914 103.924C14.082 104.44 14.256 104.98 14.436 105.544C14.556 105.928 14.784 106.12 15.12 106.12C15.432 106.12 15.66 105.892 15.804 105.436C16.164 104.32 16.494 103.186 16.794 102.034C17.094 100.882 17.406 99.706 17.73 98.506C18.054 97.294 18.432 96.052 18.864 94.78C19.116 94.024 19.44 93.454 19.836 93.07C20.232 92.674 20.76 92.476 21.42 92.476C22.2 92.476 22.764 92.746 23.112 93.286C23.472 93.814 23.712 94.504 23.832 95.356C24.324 98.68 24.768 102.124 25.164 105.688C25.56 109.24 25.908 112.756 26.208 116.236C26.268 116.824 26.196 117.31 25.992 117.694C25.788 118.066 25.44 118.252 24.948 118.252C24.48 118.252 24.114 118.096 23.85 117.784C23.598 117.472 23.4 116.992 23.256 116.344C22.884 114.544 22.548 112.762 22.248 110.998C21.948 109.234 21.636 107.644 21.312 106.228C21.204 105.724 20.988 105.442 20.664 105.382C20.352 105.322 20.004 105.484 19.62 105.868C19.08 106.42 18.594 106.984 18.162 107.56C17.73 108.136 17.244 108.712 16.704 109.288C16.308 109.72 15.924 110.02 15.552 110.188C15.18 110.356 14.808 110.44 14.436 110.44C14.004 110.44 13.602 110.302 13.23 110.026C12.87 109.738 12.564 109.288 12.312 108.676C11.7 107.212 11.118 105.634 10.566 103.942C10.014 102.25 9.432 100.624 8.82 99.064C8.628 98.572 8.382 98.374 8.082 98.47C7.782 98.554 7.62 98.812 7.596 99.244C7.548 100.648 7.536 101.98 7.56 103.24C7.596 104.5 7.632 105.856 7.668 107.308C7.704 108.748 7.716 110.44 7.704 112.384C7.692 113.512 7.446 114.406 6.966 115.066C6.498 115.726 5.64 116.056 4.392 116.056C3.576 116.056 2.958 115.876 2.538 115.516C2.118 115.156 1.836 114.658 1.692 114.022C1.56 113.374 1.512 112.636 1.548 111.808ZM20.952 102.556C21.408 102.556 21.786 102.418 22.086 102.142C22.386 101.854 22.536 101.488 22.536 101.044C22.536 100.408 22.398 99.958 22.122 99.694C21.858 99.418 21.528 99.28 21.132 99.28C20.472 99.28 19.992 99.442 19.692 99.766C19.404 100.078 19.26 100.504 19.26 101.044C19.26 101.488 19.422 101.854 19.746 102.142C20.07 102.418 20.472 102.556 20.952 102.556ZM15.012 109.252C14.568 109.252 14.25 109.162 14.058 108.982C13.878 108.802 13.788 108.568 13.788 108.28C13.788 107.848 13.884 107.53 14.076 107.326C14.268 107.122 14.58 107.02 15.012 107.02C15.324 107.02 15.57 107.116 15.75 107.308C15.93 107.488 16.02 107.788 16.02 108.208C16.02 108.568 15.93 108.832 15.75 109C15.57 109.168 15.324 109.252 15.012 109.252ZM23.724 114.58C23.256 114.652 22.746 114.712 22.194 114.76C21.654 114.808 21.096 114.844 20.52 114.868C19.62 114.904 18.924 114.838 18.432 114.67C17.952 114.502 17.712 114.148 17.712 113.608C17.712 113.116 17.928 112.78 18.36 112.6C18.804 112.408 19.548 112.252 20.592 112.132C21.024 112.096 21.444 112.066 21.852 112.042C22.26 112.006 22.752 111.988 23.328 111.988C23.832 111.988 24.258 112.066 24.606 112.222C24.954 112.366 25.128 112.684 25.128 113.176C25.128 113.644 25.002 113.98 24.75 114.184C24.498 114.376 24.156 114.508 23.724 114.58ZM93.737 118.648C91.901 118.648 90.293 118.204 88.913 117.316C87.533 116.416 86.459 115.072 85.691 113.284C84.935 111.496 84.557 109.252 84.557 106.552C84.557 103.696 85.067 101.224 86.087 99.136C87.107 97.036 88.475 95.416 90.191 94.276C91.907 93.124 93.809 92.548 95.897 92.548C96.869 92.548 97.757 92.686 98.561 92.962C99.365 93.226 100.001 93.67 100.469 94.294C100.949 94.906 101.189 95.728 101.189 96.76C101.189 97.816 100.967 98.722 100.523 99.478C100.079 100.234 99.449 100.612 98.633 100.612C98.453 100.612 98.285 100.612 98.129 100.612C97.985 100.6 97.829 100.576 97.661 100.54C97.985 99.088 98.183 98.002 98.255 97.282C98.327 96.562 98.291 96.076 98.147 95.824C98.015 95.572 97.817 95.428 97.553 95.392C97.289 95.356 97.043 95.446 96.815 95.662C96.599 95.878 96.401 96.346 96.221 97.066C96.041 97.774 95.885 98.848 95.753 100.288C95.489 100.252 95.153 100.216 94.745 100.18C94.349 100.144 94.013 100.132 93.737 100.144C93.785 98.98 93.779 98.11 93.719 97.534C93.671 96.958 93.563 96.58 93.395 96.4C93.227 96.22 92.993 96.136 92.693 96.148C92.429 96.16 92.207 96.268 92.027 96.472C91.847 96.664 91.721 97.048 91.649 97.624C91.589 98.188 91.589 99.028 91.649 100.144C91.001 100.3 90.383 100.666 89.795 101.242C89.219 101.806 88.745 102.568 88.373 103.528C88.013 104.476 87.833 105.604 87.833 106.912C87.833 108.796 88.109 110.404 88.661 111.736C89.213 113.068 89.945 114.088 90.857 114.796C91.769 115.492 92.765 115.84 93.845 115.84C93.965 115.84 94.079 115.84 94.187 115.84C94.307 115.828 94.421 115.816 94.529 115.804C94.649 115.78 94.763 115.762 94.871 115.75C94.991 115.726 95.105 115.702 95.213 115.678C95.381 115.642 95.549 115.594 95.717 115.534C95.897 115.474 96.071 115.414 96.239 115.354C96.335 115.306 96.431 115.264 96.527 115.228C96.623 115.18 96.713 115.132 96.797 115.084C96.869 115.048 96.935 115.006 96.995 114.958C97.067 114.91 97.133 114.868 97.193 114.832C97.265 114.796 97.331 114.76 97.391 114.724C97.439 114.664 97.493 114.622 97.553 114.598C97.613 114.562 97.667 114.52 97.715 114.472C97.775 114.412 97.847 114.346 97.931 114.274C98.363 113.842 98.723 113.524 99.011 113.32C99.311 113.116 99.629 113.014 99.965 113.014C100.277 113.014 100.523 113.128 100.703 113.356C100.895 113.584 100.991 113.86 100.991 114.184C100.991 114.784 100.793 115.354 100.397 115.894C100.001 116.422 99.461 116.896 98.777 117.316C98.093 117.724 97.313 118.048 96.437 118.288C95.573 118.528 94.673 118.648 93.737 118.648ZM91.613 94.78C91.649 94.828 91.691 94.894 91.739 94.978C91.799 95.062 91.853 95.152 91.901 95.248C91.997 95.452 91.937 95.686 91.721 95.95C91.505 96.202 91.241 96.424 90.929 96.616C90.629 96.796 90.383 96.886 90.191 96.886C90.131 96.886 90.071 96.886 90.011 96.886C89.951 96.874 89.897 96.844 89.849 96.796C89.813 96.76 89.759 96.706 89.687 96.634C89.615 96.55 89.561 96.484 89.525 96.436C89.309 96.124 89.243 95.818 89.327 95.518C89.411 95.218 89.597 94.972 89.885 94.78C90.173 94.576 90.485 94.474 90.821 94.474C90.989 94.474 91.139 94.504 91.271 94.564C91.415 94.612 91.529 94.684 91.613 94.78ZM84.251 110.656C84.911 110.356 85.727 110.008 86.699 109.612C87.671 109.216 88.667 108.838 89.687 108.478C90.095 108.322 90.449 108.286 90.749 108.37C91.049 108.454 91.265 108.634 91.397 108.91C91.577 109.222 91.601 109.534 91.469 109.846C91.349 110.146 91.079 110.416 90.659 110.656C89.711 111.16 88.757 111.652 87.797 112.132C86.849 112.612 85.991 113.02 85.223 113.356C84.599 113.644 84.077 113.758 83.657 113.698C83.249 113.626 82.955 113.368 82.775 112.924C82.607 112.492 82.631 112.084 82.847 111.7C83.075 111.316 83.543 110.968 84.251 110.656ZM94.529 109.288C94.025 109.288 93.617 109.126 93.305 108.802C92.993 108.478 92.837 107.992 92.837 107.344C92.837 106.804 93.011 106.36 93.359 106.012C93.707 105.652 94.229 105.472 94.925 105.472C95.465 105.472 95.885 105.634 96.185 105.958C96.497 106.27 96.653 106.696 96.653 107.236C96.653 107.956 96.485 108.478 96.149 108.802C95.825 109.126 95.285 109.288 94.529 109.288ZM98.417 115.264C98.489 115.348 98.555 115.45 98.615 115.57C98.687 115.678 98.741 115.78 98.777 115.876C98.945 116.236 98.867 116.542 98.543 116.794C98.231 117.046 97.901 117.172 97.553 117.172C97.385 117.172 97.229 117.13 97.085 117.046C96.953 116.962 96.845 116.86 96.761 116.74C96.725 116.68 96.689 116.62 96.653 116.56C96.629 116.488 96.605 116.428 96.581 116.38L98.417 115.264ZM96.185 117.748C96.281 118.396 96.365 119.044 96.437 119.692C96.509 120.352 96.569 121.024 96.617 121.708C96.641 122.224 96.539 122.602 96.311 122.842C96.083 123.094 95.711 123.22 95.195 123.22C94.799 123.22 94.493 123.094 94.277 122.842C94.073 122.59 93.941 122.188 93.881 121.636C93.833 121.06 93.785 120.454 93.737 119.818C93.689 119.182 93.653 118.516 93.629 117.82C93.629 117.46 93.761 117.184 94.025 116.992C94.289 116.8 94.571 116.704 94.871 116.704C95.183 116.704 95.465 116.788 95.717 116.956C95.969 117.124 96.125 117.388 96.185 117.748ZM168.926 118.072C167.402 118.072 166.076 117.892 164.948 117.532C163.832 117.16 162.908 116.614 162.176 115.894C161.444 115.162 160.898 114.262 160.538 113.194C160.178 112.126 159.998 110.89 159.998 109.486C159.998 108.754 160.01 107.896 160.034 106.912C160.07 105.928 160.112 104.878 160.16 103.762C160.22 102.646 160.286 101.512 160.358 100.36C160.43 99.208 160.502 98.092 160.574 97.012C160.658 95.932 160.742 94.948 160.826 94.06C160.886 93.388 161.036 92.86 161.276 92.476C161.516 92.092 161.894 91.9 162.41 91.9C162.974 91.9 163.37 92.146 163.598 92.638C163.838 93.13 163.958 93.784 163.958 94.6C163.958 95.092 163.946 95.788 163.922 96.688C163.898 97.576 163.868 98.584 163.832 99.712C163.808 100.828 163.778 101.992 163.742 103.204C163.718 104.416 163.694 105.592 163.67 106.732C163.646 107.86 163.634 108.874 163.634 109.774C163.634 110.758 163.73 111.604 163.922 112.312C164.114 113.008 164.438 113.542 164.894 113.914C165.35 114.286 165.962 114.472 166.73 114.472C167.39 114.472 167.96 114.346 168.44 114.094C168.932 113.842 169.346 113.434 169.682 112.87C170.018 112.294 170.294 111.532 170.51 110.584C170.762 109.504 170.996 108.4 171.212 107.272C171.44 106.132 171.65 104.956 171.842 103.744C172.046 102.532 172.256 101.266 172.472 99.946C172.688 98.626 172.922 97.24 173.174 95.788C173.306 95.044 173.528 94.486 173.84 94.114C174.152 93.742 174.566 93.556 175.082 93.556C175.646 93.556 176.06 93.76 176.324 94.168C176.588 94.564 176.762 95.068 176.846 95.68C176.966 96.46 177.098 97.384 177.242 98.452C177.398 99.52 177.548 100.636 177.691 101.8C177.836 102.964 177.968 104.092 178.088 105.184C178.22 106.276 178.322 107.248 178.394 108.1C178.478 108.94 178.52 109.564 178.52 109.972C178.52 111.76 178.166 113.254 177.458 114.454C176.762 115.654 175.7 116.56 174.272 117.172C172.856 117.772 171.074 118.072 168.926 118.072ZM167.468 107.956C166.976 107.956 166.532 107.836 166.136 107.596C165.752 107.356 165.56 106.924 165.56 106.3C165.56 105.76 165.716 105.28 166.027 104.86C166.352 104.428 166.832 104.212 167.468 104.212C167.96 104.212 168.38 104.356 168.728 104.644C169.076 104.932 169.25 105.34 169.25 105.868C169.25 106.456 169.082 106.954 168.746 107.362C168.422 107.758 167.996 107.956 167.468 107.956ZM165.65 97.516C166.586 97.516 167.27 97.57 167.702 97.678C168.134 97.786 168.35 98.068 168.35 98.524C168.35 99.04 168.146 99.37 167.738 99.514C167.33 99.646 166.646 99.76 165.686 99.856C164.774 99.94 163.862 100.006 162.95 100.054C162.05 100.09 161.15 100.12 160.25 100.144C159.23 100.156 158.486 100.09 158.018 99.946C157.562 99.79 157.334 99.472 157.334 98.992C157.334 98.488 157.544 98.164 157.964 98.02C158.396 97.876 159.086 97.78 160.034 97.732C160.97 97.672 161.906 97.624 162.842 97.588C163.778 97.552 164.714 97.528 165.65 97.516ZM161.438 102.016C161.714 101.992 161.936 102.028 162.104 102.124C162.284 102.208 162.416 102.352 162.5 102.556C162.584 102.76 162.626 103.012 162.626 103.312C162.626 103.492 162.596 103.642 162.536 103.762C162.476 103.882 162.386 103.984 162.266 104.068C162.146 104.152 162.002 104.224 161.834 104.284C161.678 104.332 161.468 104.392 161.204 104.464C160.952 104.524 160.706 104.572 160.466 104.608C159.386 104.788 158.528 104.83 157.892 104.734C157.256 104.638 156.938 104.284 156.938 103.672C156.938 103.288 157.178 102.988 157.658 102.772C158.138 102.556 159.062 102.34 160.43 102.124C160.598 102.1 160.766 102.082 160.934 102.07C161.114 102.046 161.282 102.028 161.438 102.016ZM175.55 99.208C175.838 99.184 176.06 99.292 176.216 99.532C176.372 99.772 176.45 100.036 176.45 100.324C176.45 100.612 176.372 100.876 176.216 101.116C176.072 101.356 175.838 101.488 175.514 101.512C175.406 101.512 175.292 101.512 175.172 101.512C175.052 101.512 174.938 101.512 174.83 101.512C174.47 101.524 174.194 101.386 174.002 101.098C173.81 100.81 173.714 100.504 173.714 100.18C173.714 99.928 173.78 99.706 173.912 99.514C174.044 99.31 174.254 99.208 174.542 99.208C174.71 99.208 174.878 99.208 175.046 99.208C175.226 99.208 175.394 99.208 175.55 99.208ZM174.65 111.088C175.25 111.088 175.688 110.95 175.964 110.674C176.24 110.398 176.378 110.044 176.378 109.612C176.378 108.964 176.234 108.49 175.945 108.19C175.669 107.89 175.286 107.74 174.794 107.74C174.254 107.74 173.822 107.89 173.498 108.19C173.186 108.478 173.03 108.856 173.03 109.324C173.03 109.864 173.186 110.296 173.498 110.62C173.822 110.932 174.206 111.088 174.65 111.088ZM174.938 105.796C175.37 105.796 175.688 105.682 175.892 105.454C176.096 105.226 176.198 104.836 176.198 104.284C176.198 103.936 176.084 103.654 175.855 103.438C175.639 103.21 175.37 103.096 175.046 103.096C174.566 103.096 174.194 103.21 173.93 103.438C173.666 103.654 173.534 103.972 173.534 104.392C173.534 104.8 173.654 105.136 173.894 105.4C174.146 105.664 174.494 105.796 174.938 105.796ZM173.318 115.156C173.738 115.156 174.05 115.054 174.254 114.85C174.47 114.646 174.578 114.364 174.578 114.004C174.578 113.5 174.47 113.14 174.254 112.924C174.038 112.708 173.666 112.6 173.138 112.6C172.838 112.6 172.574 112.72 172.346 112.96C172.13 113.188 172.022 113.5 172.022 113.896C172.022 114.256 172.136 114.556 172.364 114.796C172.604 115.036 172.922 115.156 173.318 115.156Z" fill="#481E0B"/>
<path d="M30.0988 115.264C30.0988 113.404 30.1108 111.64 30.1348 109.972C30.1708 108.304 30.2068 106.564 30.2428 104.752C31.3828 104.752 32.2408 104.71 32.8168 104.626C33.3928 104.542 33.7768 104.404 33.9688 104.212C34.1608 104.02 34.2508 103.768 34.2388 103.456C34.2268 103.168 34.1308 102.94 33.9508 102.772C33.7828 102.604 33.4168 102.496 32.8528 102.448C32.3008 102.388 31.4548 102.388 30.3148 102.448C30.3148 102.16 30.3148 101.806 30.3148 101.386C30.3268 100.954 30.3388 100.588 30.3508 100.288C31.6708 100.228 32.5108 100.102 32.8708 99.91C33.2308 99.706 33.4108 99.4 33.4108 98.992C33.4108 98.56 33.2248 98.242 32.8528 98.038C32.4808 97.834 31.6468 97.744 30.3508 97.768C30.3508 97.564 30.3568 97.324 30.3688 97.048C30.3928 96.772 30.4108 96.448 30.4228 96.076C30.4588 95.068 30.7588 94.378 31.3228 94.006C31.8868 93.622 32.6428 93.388 33.5908 93.304C34.3108 93.244 35.0308 93.184 35.7508 93.124C36.4708 93.064 37.1848 93.016 37.8928 92.98C38.6008 92.932 39.2908 92.896 39.9628 92.872C40.6468 92.848 41.3068 92.836 41.9428 92.836C42.9028 92.836 43.5868 92.974 43.9948 93.25C44.4028 93.526 44.6068 93.964 44.6068 94.564C44.6068 94.948 44.5468 95.266 44.4268 95.518C44.3068 95.758 44.1208 95.938 43.8688 96.058C43.6288 96.166 43.3228 96.22 42.9508 96.22C42.9148 96.22 42.8668 96.22 42.8068 96.22C42.7588 96.22 42.7048 96.22 42.6448 96.22C42.5848 96.22 42.5248 96.22 42.4648 96.22C42.3088 96.208 42.1528 96.202 41.9968 96.202C41.8528 96.202 41.7268 96.196 41.6188 96.184C41.2588 96.16 40.8748 96.142 40.4668 96.13C40.0708 96.118 39.6808 96.106 39.2968 96.094C39.2128 96.094 39.1288 96.094 39.0448 96.094C38.9608 96.082 38.8708 96.076 38.7748 96.076C38.6908 96.076 38.6068 96.076 38.5228 96.076C38.4388 96.064 38.3548 96.058 38.2708 96.058C38.1988 96.058 38.1268 96.058 38.0548 96.058C37.8988 96.046 37.7488 96.04 37.6048 96.04C37.4728 96.04 37.3468 96.04 37.2268 96.04C36.7948 96.04 36.5068 96.136 36.3628 96.328C36.2188 96.52 36.1708 96.952 36.2188 97.624C36.2908 98.608 36.3808 99.502 36.4888 100.306C36.5968 101.11 36.7228 101.992 36.8668 102.952C36.9388 103.42 37.0468 103.738 37.1908 103.906C37.3468 104.074 37.6108 104.14 37.9828 104.104C38.5108 104.044 39.0508 103.978 39.6028 103.906C40.1668 103.822 40.6468 103.756 41.0428 103.708C41.5108 103.648 41.8588 103.774 42.0868 104.086C42.3268 104.398 42.4468 104.764 42.4468 105.184C42.4468 105.58 42.3328 105.958 42.1048 106.318C41.8768 106.666 41.5348 106.852 41.0788 106.876C40.8148 106.888 40.5388 106.9 40.2508 106.912C39.9628 106.924 39.6628 106.936 39.3508 106.948C39.2188 106.96 39.0868 106.966 38.9548 106.966C38.8348 106.966 38.7088 106.972 38.5768 106.984C38.4568 106.984 38.3308 106.99 38.1988 107.002C38.0788 107.002 37.9588 107.002 37.8388 107.002C37.6108 107.014 37.3828 107.026 37.1548 107.038C36.9388 107.038 36.7168 107.044 36.4888 107.056C36.4168 107.056 36.3388 107.056 36.2548 107.056C36.1828 107.056 36.1048 107.062 36.0208 107.074C35.9488 107.074 35.8708 107.074 35.7868 107.074C35.7148 107.074 35.6428 107.08 35.5708 107.092C35.4988 107.092 35.4208 107.092 35.3368 107.092C35.2648 107.092 35.1928 107.098 35.1208 107.11C34.9288 107.122 34.7368 107.134 34.5448 107.146C34.3648 107.158 34.1908 107.164 34.0228 107.164C33.7588 107.176 33.5428 107.278 33.3748 107.47C33.2188 107.662 33.1828 108.004 33.2668 108.496C33.4348 109.372 33.6268 110.242 33.8428 111.106C34.0588 111.958 34.2988 112.828 34.5628 113.716C34.7068 114.196 34.8808 114.508 35.0848 114.652C35.2888 114.784 35.5708 114.832 35.9308 114.796C37.1428 114.664 38.3488 114.52 39.5488 114.364C40.7608 114.208 42.0028 114.076 43.2748 113.968C43.8268 113.92 44.2348 114.088 44.4988 114.472C44.7748 114.856 44.9128 115.276 44.9128 115.732C44.9128 116.14 44.7988 116.518 44.5708 116.866C44.3548 117.214 44.0188 117.4 43.5628 117.424C41.7148 117.496 39.8548 117.526 37.9828 117.514C36.1228 117.502 34.2628 117.496 32.4028 117.496C31.5748 117.496 30.9808 117.298 30.6208 116.902C30.2728 116.506 30.0988 115.96 30.0988 115.264ZM34.9948 116.308L37.3348 116.344C37.3828 117.7 37.3768 118.708 37.3168 119.368C37.2688 120.04 37.1488 120.484 36.9568 120.7C36.7768 120.916 36.5188 121.024 36.1828 121.024C35.8348 121.024 35.5708 120.91 35.3908 120.682C35.2228 120.466 35.1088 120.022 35.0488 119.35C35.0008 118.678 34.9828 117.664 34.9948 116.308ZM40.5028 120.484C40.4548 119.836 40.4128 119.176 40.3768 118.504C40.3408 117.844 40.3108 117.184 40.2868 116.524C40.2748 115.768 40.3528 115.252 40.5208 114.976C40.7008 114.688 41.0068 114.544 41.4388 114.544C41.8228 114.544 42.1048 114.676 42.2848 114.94C42.4768 115.192 42.5908 115.624 42.6268 116.236C42.6628 116.92 42.6928 117.598 42.7168 118.27C42.7408 118.942 42.7588 119.62 42.7708 120.304C42.7948 120.916 42.7048 121.36 42.5008 121.636C42.3088 121.924 42.0388 122.068 41.6908 122.068C41.3308 122.068 41.0548 121.948 40.8628 121.708C40.6828 121.48 40.5628 121.072 40.5028 120.484ZM41.2948 112.348C40.6588 112.348 40.1668 112.174 39.8188 111.826C39.4828 111.478 39.3148 110.98 39.3148 110.332C39.3148 109.684 39.4768 109.21 39.8008 108.91C40.1368 108.61 40.5988 108.46 41.1868 108.46C41.8228 108.46 42.3148 108.622 42.6628 108.946C43.0228 109.27 43.2028 109.696 43.2028 110.224C43.2028 110.944 43.0228 111.478 42.6628 111.826C42.3148 112.174 41.8588 112.348 41.2948 112.348ZM38.9548 94.132C38.9548 93.892 39.0688 93.682 39.2968 93.502C39.5248 93.322 39.7828 93.232 40.0708 93.232C40.3828 93.232 40.6708 93.268 40.9348 93.34C41.2108 93.4 41.3548 93.568 41.3668 93.844C41.3908 93.964 41.4088 94.09 41.4208 94.222C41.4328 94.342 41.4388 94.456 41.4388 94.564C41.4388 94.828 41.3308 95.056 41.1148 95.248C40.8988 95.44 40.6348 95.536 40.3228 95.536C40.0348 95.536 39.7528 95.488 39.4768 95.392C39.2128 95.284 39.0628 95.08 39.0268 94.78C39.0148 94.672 38.9968 94.564 38.9728 94.456C38.9608 94.348 38.9548 94.24 38.9548 94.132ZM34.0588 95.32L33.7348 97.624C33.3028 97.564 32.9668 97.456 32.7268 97.3C32.4868 97.132 32.3668 96.844 32.3668 96.436C32.3668 95.932 32.5168 95.62 32.8168 95.5C33.1288 95.38 33.5428 95.32 34.0588 95.32ZM112.985 117.172C111.821 117.172 110.771 117.016 109.835 116.704C108.899 116.392 108.089 115.912 107.405 115.264C106.721 114.604 106.169 113.788 105.749 112.816C105.329 111.832 105.053 110.692 104.921 109.396C104.837 108.616 104.741 107.692 104.633 106.624C104.537 105.544 104.441 104.416 104.345 103.24C104.249 102.052 104.159 100.9 104.075 99.784C103.991 98.656 103.919 97.654 103.859 96.778C103.811 95.89 103.787 95.224 103.787 94.78C103.787 93.964 103.961 93.376 104.309 93.016C104.657 92.656 105.161 92.476 105.821 92.476C106.505 92.476 106.991 92.692 107.279 93.124C107.579 93.544 107.729 94.24 107.729 95.212C107.729 95.824 107.723 96.448 107.711 97.084C107.699 97.72 107.681 98.368 107.657 99.028C107.645 99.676 107.633 100.336 107.621 101.008C107.609 101.68 107.597 102.352 107.585 103.024C107.573 103.696 107.567 104.368 107.567 105.04C107.567 106.036 107.603 106.888 107.675 107.596C107.747 108.292 107.945 108.82 108.269 109.18C108.605 109.54 109.169 109.72 109.961 109.72C110.897 109.72 111.767 109.516 112.571 109.108C113.387 108.7 114.125 108.094 114.785 107.29C115.445 106.486 115.997 105.484 116.441 104.284C116.729 103.492 116.993 102.724 117.233 101.98C117.473 101.224 117.701 100.486 117.917 99.766C118.133 99.046 118.349 98.338 118.565 97.642C118.781 96.934 119.009 96.232 119.249 95.536C119.429 95.008 119.627 94.618 119.843 94.366C120.071 94.114 120.365 93.988 120.725 93.988C121.109 93.988 121.379 94.132 121.535 94.42C121.691 94.696 121.775 95.098 121.787 95.626C121.775 96.19 121.751 96.91 121.715 97.786C121.679 98.65 121.637 99.592 121.589 100.612C121.541 101.632 121.481 102.664 121.409 103.708C121.337 104.752 121.259 105.748 121.175 106.696C121.103 107.632 121.037 108.448 120.977 109.144C120.785 111.136 120.293 112.72 119.501 113.896C118.709 115.06 117.743 115.9 116.603 116.416C115.463 116.92 114.257 117.172 112.985 117.172ZM111.365 107.956C110.813 107.956 110.375 107.776 110.051 107.416C109.727 107.044 109.565 106.522 109.565 105.85C109.565 105.418 109.691 105.04 109.943 104.716C110.195 104.38 110.579 104.212 111.095 104.212C111.815 104.212 112.361 104.356 112.733 104.644C113.117 104.92 113.309 105.34 113.309 105.904C113.309 106.576 113.129 107.086 112.769 107.434C112.409 107.782 111.941 107.956 111.365 107.956ZM105.065 97.516C105.629 97.48 106.055 97.534 106.343 97.678C106.631 97.81 106.775 98.128 106.775 98.632C106.775 98.932 106.667 99.166 106.451 99.334C106.235 99.49 105.863 99.604 105.335 99.676C105.071 99.7 104.813 99.742 104.561 99.802C104.309 99.85 104.057 99.892 103.805 99.928C103.037 100.036 102.419 100.066 101.951 100.018C101.483 99.97 101.249 99.64 101.249 99.028C101.249 98.668 101.417 98.398 101.753 98.218C102.089 98.038 102.605 97.888 103.301 97.768C103.589 97.708 103.883 97.654 104.183 97.606C104.483 97.558 104.777 97.528 105.065 97.516ZM109.925 100.36C110.417 100.312 110.831 100.294 111.167 100.306C111.515 100.306 111.779 100.378 111.959 100.522C112.139 100.654 112.229 100.876 112.229 101.188C112.229 101.416 112.157 101.614 112.013 101.782C111.881 101.95 111.659 102.094 111.347 102.214C111.047 102.334 110.633 102.436 110.105 102.52C109.661 102.592 109.169 102.67 108.629 102.754C108.089 102.838 107.501 102.916 106.865 102.988C106.373 103.024 105.995 102.988 105.731 102.88C105.479 102.76 105.353 102.448 105.353 101.944C105.353 101.668 105.431 101.44 105.587 101.26C105.743 101.068 105.965 100.948 106.253 100.9C106.865 100.768 107.477 100.66 108.089 100.576C108.701 100.48 109.313 100.408 109.925 100.36ZM121.409 104.212C122.561 104.32 123.359 104.482 123.803 104.698C124.247 104.902 124.469 105.184 124.469 105.544C124.469 106.228 124.145 106.594 123.497 106.642C122.861 106.678 122.051 106.672 121.067 106.624C120.743 106.6 120.407 106.57 120.059 106.534C119.723 106.498 119.381 106.456 119.033 106.408C118.709 106.348 118.463 106.204 118.295 105.976C118.127 105.736 118.043 105.472 118.043 105.184C118.043 104.872 118.145 104.596 118.349 104.356C118.553 104.116 118.841 104.008 119.213 104.032C119.561 104.044 119.921 104.068 120.293 104.104C120.665 104.14 121.037 104.176 121.409 104.212ZM115.991 113.428C116.363 113.428 116.675 113.29 116.927 113.014C117.179 112.738 117.305 112.396 117.305 111.988C117.305 111.448 117.179 111.04 116.927 110.764C116.675 110.476 116.261 110.332 115.685 110.332C115.241 110.332 114.887 110.452 114.623 110.692C114.359 110.932 114.227 111.28 114.227 111.736C114.227 112.24 114.365 112.648 114.641 112.96C114.917 113.272 115.367 113.428 115.991 113.428ZM118.385 109.612C118.697 109.612 118.955 109.498 119.159 109.27C119.375 109.03 119.483 108.712 119.483 108.316C119.483 107.92 119.369 107.614 119.141 107.398C118.925 107.17 118.673 107.056 118.385 107.056C117.845 107.056 117.461 107.176 117.233 107.416C117.017 107.656 116.909 107.992 116.909 108.424C116.909 108.748 117.023 109.03 117.251 109.27C117.491 109.498 117.869 109.612 118.385 109.612ZM111.689 114.544C112.109 114.544 112.433 114.43 112.661 114.202C112.901 113.962 113.021 113.656 113.021 113.284C113.021 112.828 112.919 112.498 112.715 112.294C112.511 112.09 112.145 111.988 111.617 111.988C111.245 111.988 110.957 112.102 110.753 112.33C110.561 112.546 110.465 112.816 110.465 113.14C110.465 113.572 110.585 113.914 110.825 114.166C111.065 114.418 111.353 114.544 111.689 114.544ZM182.733 116.2C182.553 114.556 182.391 112.756 182.247 110.8C182.115 108.832 182.013 106.87 181.941 104.914C181.905 103.954 181.899 103.024 181.923 102.124C181.947 101.224 182.001 100.432 182.085 99.748C183.057 100.036 183.807 100.168 184.335 100.144C184.863 100.108 185.205 99.904 185.361 99.532C185.541 99.1 185.433 98.686 185.037 98.29C184.653 97.882 183.813 97.456 182.517 97.012C182.733 96.484 183.021 95.944 183.381 95.392C183.753 94.84 184.137 94.396 184.533 94.06C185.253 95.044 185.835 95.668 186.279 95.932C186.735 96.184 187.161 96.16 187.557 95.86C187.941 95.584 188.043 95.122 187.863 94.474C187.683 93.814 187.341 93.16 186.837 92.512C187.329 92.296 187.995 92.122 188.835 91.99C189.675 91.858 190.401 91.792 191.013 91.792C192.681 91.792 194.133 91.972 195.369 92.332C196.605 92.68 197.631 93.196 198.447 93.88C199.263 94.552 199.869 95.368 200.265 96.328C200.673 97.276 200.877 98.356 200.877 99.568C200.877 100.9 200.613 102.07 200.085 103.078C199.557 104.086 198.825 104.878 197.889 105.454C196.953 106.018 195.873 106.3 194.649 106.3C193.617 106.3 192.747 106.12 192.039 105.76C191.343 105.388 190.815 104.878 190.455 104.23C190.107 103.582 189.933 102.832 189.933 101.98C189.933 100.768 190.293 99.802 191.013 99.082C191.733 98.35 192.633 97.984 193.713 97.984C194.589 97.984 195.279 98.2 195.783 98.632C196.299 99.064 196.557 99.562 196.557 100.126C196.557 100.45 196.473 100.714 196.305 100.918C196.149 101.11 195.909 101.206 195.585 101.206C195.369 101.206 195.201 101.164 195.081 101.08C194.973 100.984 194.871 100.876 194.775 100.756C194.691 100.624 194.577 100.516 194.433 100.432C194.289 100.336 194.073 100.288 193.785 100.288C193.413 100.288 193.131 100.432 192.939 100.72C192.759 101.008 192.669 101.344 192.669 101.728C192.669 102.352 192.867 102.874 193.263 103.294C193.659 103.714 194.169 103.924 194.793 103.924C195.837 103.924 196.659 103.54 197.259 102.772C197.871 101.992 198.177 100.984 198.177 99.748C198.177 98.356 197.799 97.228 197.043 96.364C196.299 95.5 195.249 95.068 193.893 95.068C192.813 95.068 191.847 95.344 190.995 95.896C190.155 96.436 189.441 97.228 188.853 98.272C188.277 99.316 187.845 100.576 187.557 102.052C187.317 103.348 187.143 104.38 187.035 105.148C186.939 105.904 186.909 106.486 186.945 106.894C186.993 107.302 187.101 107.608 187.269 107.812C187.437 108.016 187.665 108.208 187.953 108.388C188.169 108.508 188.427 108.652 188.727 108.82C189.027 108.976 189.357 109.144 189.717 109.324C189.849 109.372 189.981 109.432 190.113 109.504C190.257 109.576 190.401 109.642 190.545 109.702C190.713 109.774 190.881 109.852 191.049 109.936C191.229 110.02 191.409 110.104 191.589 110.188C191.733 110.248 191.871 110.314 192.003 110.386C192.147 110.446 192.285 110.506 192.417 110.566C192.573 110.638 192.717 110.71 192.849 110.782C192.981 110.854 193.113 110.92 193.245 110.98C193.353 111.028 193.455 111.076 193.551 111.124C193.659 111.172 193.761 111.22 193.857 111.268C193.965 111.316 194.073 111.364 194.181 111.412C195.549 112.072 196.671 112.624 197.547 113.068C198.423 113.512 199.101 113.914 199.581 114.274C200.061 114.622 200.397 114.976 200.589 115.336C200.781 115.684 200.877 116.092 200.877 116.56C200.877 116.968 200.733 117.334 200.445 117.658C200.157 117.982 199.749 118.144 199.221 118.144C198.993 118.144 198.735 118.102 198.447 118.018C198.171 117.946 197.799 117.79 197.331 117.55C196.875 117.31 196.263 116.956 195.495 116.488C194.727 116.02 193.743 115.396 192.543 114.616C191.355 113.836 189.885 112.864 188.133 111.7C187.485 111.268 186.981 111.112 186.621 111.232C186.273 111.34 186.045 111.676 185.937 112.24C185.781 112.996 185.667 113.77 185.595 114.562C185.523 115.342 185.433 115.984 185.325 116.488C185.205 117.004 185.055 117.4 184.875 117.676C184.695 117.94 184.413 118.072 184.029 118.072C183.597 118.072 183.291 117.916 183.111 117.604C182.931 117.292 182.805 116.824 182.733 116.2ZM184.353 115.264C184.029 115.264 183.777 115.186 183.597 115.03C183.429 114.862 183.345 114.544 183.345 114.076C183.345 113.68 183.417 113.41 183.561 113.266C183.717 113.122 183.957 113.068 184.281 113.104L184.353 115.264ZM183.273 109.576C183.057 109.552 182.883 109.48 182.751 109.36C182.619 109.24 182.553 108.976 182.553 108.568C182.553 108.112 182.619 107.818 182.751 107.686C182.895 107.554 183.153 107.5 183.525 107.524L183.273 109.576ZM196.305 110.872C195.729 110.872 195.273 110.722 194.937 110.422C194.601 110.122 194.433 109.72 194.433 109.216C194.433 108.532 194.583 108.028 194.883 107.704C195.183 107.368 195.621 107.2 196.197 107.2C196.833 107.2 197.313 107.35 197.637 107.65C197.973 107.938 198.141 108.388 198.141 109C198.141 109.588 197.985 110.05 197.673 110.386C197.373 110.71 196.917 110.872 196.305 110.872Z" fill="#3A7329"/>
<path d="M48.098 118.972C47.726 118.972 47.414 118.852 47.162 118.612C46.922 118.372 46.802 118.048 46.802 117.64C46.802 117.244 46.904 116.788 47.108 116.272C47.612 114.952 48.158 113.656 48.746 112.384C49.334 111.1 49.88 109.804 50.384 108.496C50.6 107.92 50.75 107.35 50.834 106.786C50.918 106.21 50.96 105.64 50.96 105.076C50.96 104.44 50.912 103.816 50.816 103.204C50.72 102.592 50.552 102.052 50.312 101.584C49.808 100.564 49.268 99.598 48.692 98.686C48.116 97.774 47.576 96.796 47.072 95.752C46.904 95.404 46.772 95.08 46.676 94.78C46.58 94.48 46.532 94.216 46.532 93.988C46.532 93.508 46.7 93.136 47.036 92.872C47.372 92.608 47.738 92.476 48.134 92.476C48.374 92.476 48.608 92.536 48.836 92.656C49.064 92.764 49.28 92.92 49.484 93.124C49.748 93.388 50.066 93.832 50.438 94.456C50.822 95.068 51.176 95.668 51.5 96.256C51.548 96.34 51.596 96.424 51.644 96.508C51.692 96.58 51.74 96.658 51.788 96.742C51.836 96.814 51.884 96.892 51.932 96.976C51.992 97.084 52.052 97.198 52.112 97.318C52.184 97.438 52.256 97.552 52.328 97.66C52.4 97.804 52.472 97.942 52.544 98.074C52.628 98.206 52.712 98.344 52.796 98.488C52.868 98.608 52.94 98.728 53.012 98.848C53.084 98.956 53.156 99.076 53.228 99.208C53.3 99.316 53.372 99.43 53.444 99.55C53.516 99.67 53.588 99.784 53.66 99.892C53.756 100.036 53.846 100.18 53.93 100.324C54.026 100.456 54.116 100.588 54.2 100.72C54.596 101.296 54.956 101.668 55.28 101.836C55.604 102.004 55.952 102.088 56.324 102.088C56.672 102.088 56.996 101.998 57.296 101.818C57.596 101.638 57.908 101.272 58.232 100.72C58.832 99.676 59.384 98.596 59.888 97.48C60.392 96.352 60.932 95.248 61.508 94.168C61.736 93.748 61.982 93.448 62.246 93.268C62.51 93.088 62.786 92.998 63.074 92.998C63.494 92.998 63.836 93.13 64.1 93.394C64.364 93.646 64.496 93.994 64.496 94.438C64.496 94.834 64.388 95.308 64.172 95.86C63.764 96.88 63.332 97.87 62.876 98.83C62.432 99.778 62 100.768 61.58 101.8C61.4 102.232 61.262 102.682 61.166 103.15C61.082 103.618 61.04 104.068 61.04 104.5C61.04 104.932 61.076 105.37 61.148 105.814C61.22 106.258 61.328 106.708 61.472 107.164C61.892 108.412 62.414 109.762 63.038 111.214C63.662 112.654 64.208 114.088 64.676 115.516C64.772 115.804 64.844 116.08 64.892 116.344C64.952 116.596 64.982 116.848 64.982 117.1C64.982 117.7 64.796 118.174 64.424 118.522C64.064 118.87 63.62 119.044 63.092 119.044C62.228 119.044 61.46 118.516 60.788 117.46C60.056 116.272 59.372 115.072 58.736 113.86C58.112 112.636 57.44 111.46 56.72 110.332C56.504 109.984 56.258 109.732 55.982 109.576C55.718 109.408 55.412 109.324 55.064 109.324C54.692 109.324 54.362 109.42 54.074 109.612C53.786 109.804 53.552 110.08 53.372 110.44C52.76 111.628 52.19 112.804 51.662 113.968C51.134 115.12 50.564 116.284 49.952 117.46C49.688 117.94 49.4 118.312 49.088 118.576C48.788 118.84 48.458 118.972 48.098 118.972ZM62.624 101.26C61.94 100.948 61.262 100.624 60.59 100.288C59.918 99.952 59.264 99.604 58.628 99.244C57.692 98.704 57.08 98.254 56.792 97.894C56.516 97.534 56.456 97.168 56.612 96.796C56.792 96.364 57.14 96.178 57.656 96.238C58.184 96.298 58.844 96.508 59.636 96.868C60.344 97.192 61.058 97.534 61.778 97.894C62.498 98.254 63.224 98.632 63.956 99.028C64.964 99.556 65.66 100.024 66.044 100.432C66.44 100.84 66.548 101.26 66.368 101.692C66.188 102.124 65.804 102.286 65.216 102.178C64.628 102.07 63.764 101.764 62.624 101.26ZM59.096 102.736L59.924 101.044C60.284 101.188 60.512 101.362 60.608 101.566C60.716 101.77 60.68 102.064 60.5 102.448C60.308 102.82 60.104 103 59.888 102.988C59.684 102.976 59.42 102.892 59.096 102.736ZM55.172 105.922C54.812 105.922 54.512 105.808 54.272 105.58C54.032 105.34 53.912 104.968 53.912 104.464C53.912 104.104 54.02 103.816 54.236 103.6C54.464 103.384 54.8 103.276 55.244 103.276C55.64 103.276 55.958 103.396 56.198 103.636C56.438 103.876 56.558 104.218 56.558 104.662C56.558 105.046 56.426 105.352 56.162 105.58C55.898 105.808 55.568 105.922 55.172 105.922ZM51.644 115.768C50.96 115.48 50.294 115.18 49.646 114.868C49.01 114.544 48.38 114.226 47.756 113.914C47.024 113.518 46.514 113.146 46.226 112.798C45.938 112.438 45.89 112.054 46.082 111.646C46.274 111.262 46.58 111.082 47 111.106C47.432 111.118 48.056 111.292 48.872 111.628C49.544 111.892 50.21 112.174 50.87 112.474C51.53 112.774 52.172 113.08 52.796 113.392C53.912 113.932 54.656 114.412 55.028 114.832C55.412 115.252 55.52 115.672 55.352 116.092C55.16 116.536 54.794 116.722 54.254 116.65C53.726 116.578 52.856 116.284 51.644 115.768ZM60.536 113.464C60.932 113.464 61.244 113.35 61.472 113.122C61.712 112.894 61.832 112.636 61.832 112.348C61.832 111.928 61.724 111.604 61.508 111.376C61.304 111.136 61.04 111.016 60.716 111.016C60.248 111.016 59.906 111.118 59.69 111.322C59.486 111.514 59.384 111.856 59.384 112.348C59.384 112.684 59.48 112.954 59.672 113.158C59.876 113.362 60.164 113.464 60.536 113.464ZM58.628 108.856C59.096 108.856 59.462 108.712 59.726 108.424C60.002 108.136 60.14 107.704 60.14 107.128C60.14 106.732 60.02 106.414 59.78 106.174C59.54 105.922 59.24 105.796 58.88 105.796C58.256 105.796 57.8 105.94 57.512 106.228C57.224 106.504 57.08 106.852 57.08 107.272C57.08 107.776 57.218 108.166 57.494 108.442C57.782 108.718 58.16 108.856 58.628 108.856ZM48.368 117.568C48.32 117.544 48.26 117.52 48.188 117.496C48.128 117.46 48.068 117.436 48.008 117.424C47.828 117.352 47.72 117.214 47.684 117.01C47.66 116.806 47.72 116.56 47.864 116.272C48.032 115.96 48.194 115.744 48.35 115.624C48.506 115.504 48.692 115.492 48.908 115.588C48.944 115.6 48.968 115.612 48.98 115.624C49.004 115.624 49.04 115.636 49.088 115.66C49.304 115.744 49.43 115.894 49.466 116.11C49.502 116.326 49.448 116.608 49.304 116.956C49.16 117.28 49.01 117.484 48.854 117.568C48.71 117.64 48.548 117.64 48.368 117.568ZM130.225 118.864C129.061 118.864 128.251 118.636 127.795 118.18C127.339 117.724 127.111 116.986 127.111 115.966C127.111 115.558 127.147 114.868 127.219 113.896C127.303 112.924 127.411 111.772 127.543 110.44C127.675 109.096 127.819 107.674 127.975 106.174C128.131 104.662 128.293 103.162 128.461 101.674C128.629 100.186 128.785 98.8 128.929 97.516C129.085 96.232 129.217 95.152 129.325 94.276C129.397 93.664 129.535 93.208 129.739 92.908C129.955 92.596 130.261 92.44 130.657 92.44C130.957 92.44 131.197 92.518 131.377 92.674C131.557 92.818 131.689 93.046 131.773 93.358C131.857 93.658 131.905 94.036 131.917 94.492C131.941 95.176 131.965 95.98 131.989 96.904C132.013 97.828 132.037 98.788 132.061 99.784C132.061 99.964 132.061 100.144 132.061 100.324C132.061 100.492 132.067 100.666 132.079 100.846C132.079 101.038 132.079 101.236 132.079 101.44C132.079 101.632 132.085 101.83 132.097 102.034C132.109 102.298 132.115 102.556 132.115 102.808C132.115 103.06 132.121 103.312 132.133 103.564C132.133 103.684 132.133 103.804 132.133 103.924C132.145 104.044 132.151 104.164 132.151 104.284C132.151 104.392 132.151 104.506 132.151 104.626C132.163 104.758 132.169 104.89 132.169 105.022C132.169 105.142 132.169 105.268 132.169 105.4C132.181 105.52 132.187 105.64 132.187 105.76C132.211 106.204 132.229 106.618 132.241 107.002C132.253 107.386 132.265 107.728 132.277 108.028C132.313 108.784 132.457 109.36 132.709 109.756C132.961 110.152 133.357 110.476 133.897 110.728C134.329 110.932 134.773 111.142 135.229 111.358C135.685 111.562 136.147 111.772 136.615 111.988C137.083 112.204 137.551 112.42 138.019 112.636C138.499 112.852 138.973 113.068 139.441 113.284C140.041 113.56 140.533 113.842 140.917 114.13C141.301 114.418 141.583 114.736 141.763 115.084C141.943 115.432 142.033 115.828 142.033 116.272C142.033 116.884 141.829 117.388 141.421 117.784C141.013 118.18 140.401 118.408 139.585 118.468C139.285 118.48 138.985 118.498 138.685 118.522C138.397 118.558 138.109 118.588 137.821 118.612C137.929 117.616 137.965 116.848 137.929 116.308C137.893 115.756 137.791 115.372 137.623 115.156C137.455 114.94 137.233 114.832 136.957 114.832C136.645 114.832 136.405 114.946 136.237 115.174C136.081 115.402 135.973 115.798 135.913 116.362C135.865 116.926 135.841 117.712 135.841 118.72C135.469 118.732 135.085 118.744 134.689 118.756C134.305 118.78 133.921 118.792 133.537 118.792C133.537 117.328 133.483 116.236 133.375 115.516C133.279 114.784 133.135 114.304 132.943 114.076C132.751 113.848 132.517 113.728 132.241 113.716C131.917 113.716 131.659 113.848 131.467 114.112C131.275 114.376 131.155 114.88 131.107 115.624C131.071 116.356 131.125 117.424 131.269 118.828C131.089 118.84 130.915 118.846 130.747 118.846C130.579 118.858 130.405 118.864 130.225 118.864ZM129.037 109.144C127.801 109.168 126.847 109.162 126.175 109.126C125.503 109.078 125.035 108.958 124.771 108.766C124.519 108.562 124.393 108.244 124.393 107.812C124.393 107.164 124.729 106.762 125.401 106.606C126.073 106.438 127.345 106.42 129.217 106.552L129.037 109.144ZM130.801 99.568V96.832C132.373 96.844 133.567 96.88 134.383 96.94C135.199 97 135.751 97.126 136.039 97.318C136.339 97.51 136.489 97.804 136.489 98.2C136.489 98.644 136.333 98.968 136.021 99.172C135.721 99.364 135.157 99.484 134.329 99.532C133.513 99.58 132.337 99.592 130.801 99.568ZM131.125 102.268L131.089 99.964C131.269 99.964 131.419 100 131.539 100.072C131.671 100.144 131.767 100.27 131.827 100.45C131.887 100.618 131.917 100.852 131.917 101.152C131.917 101.584 131.851 101.878 131.719 102.034C131.599 102.19 131.401 102.268 131.125 102.268ZM140.413 116.416L138.289 116.056C138.289 115.72 138.325 115.444 138.397 115.228C138.469 115 138.577 114.832 138.721 114.724C138.877 114.616 139.069 114.556 139.297 114.544C139.717 114.508 139.999 114.562 140.143 114.706C140.299 114.838 140.383 115.048 140.395 115.336C140.407 115.624 140.413 115.984 140.413 116.416ZM203.176 114.652C203.404 113.764 203.692 112.66 204.04 111.34C204.388 110.008 204.766 108.592 205.174 107.092C205.582 105.58 205.984 104.122 206.38 102.718C207.088 103.006 207.736 103.228 208.324 103.384C208.924 103.528 209.404 103.546 209.764 103.438C210.124 103.33 210.304 103.036 210.304 102.556C210.304 102.232 210.07 101.92 209.602 101.62C209.146 101.32 208.258 101.008 206.938 100.684C207.046 100.264 207.154 99.868 207.262 99.496C207.37 99.112 207.472 98.752 207.568 98.416C208.396 98.764 209.182 99.046 209.926 99.262C210.67 99.478 211.276 99.544 211.744 99.46C212.212 99.376 212.446 99.064 212.446 98.524C212.446 98.128 212.146 97.768 211.546 97.444C210.946 97.12 209.818 96.772 208.162 96.4C208.174 96.352 208.18 96.316 208.18 96.292C208.192 96.256 208.204 96.214 208.216 96.166C208.528 95.122 209.098 94.312 209.926 93.736C210.766 93.16 211.912 92.884 213.364 92.908C214.852 92.908 216.016 93.238 216.856 93.898C217.696 94.546 218.224 95.584 218.44 97.012C218.464 97.192 218.488 97.384 218.512 97.588C218.548 97.78 218.578 97.984 218.602 98.2C218.626 98.392 218.65 98.59 218.674 98.794C218.71 98.998 218.74 99.208 218.764 99.424C218.788 99.544 218.806 99.664 218.818 99.784C218.842 99.904 218.86 100.024 218.872 100.144C218.896 100.264 218.914 100.39 218.926 100.522C218.962 100.798 218.998 101.08 219.034 101.368C219.07 101.656 219.112 101.95 219.16 102.25C219.184 102.43 219.208 102.616 219.232 102.808C219.268 102.988 219.292 103.18 219.304 103.384C219.328 103.528 219.346 103.678 219.358 103.834C219.382 103.978 219.406 104.128 219.43 104.284C219.454 104.428 219.472 104.578 219.484 104.734C219.628 105.778 219.766 106.84 219.898 107.92C220.042 109 220.18 110.062 220.312 111.106C220.444 112.15 220.564 113.14 220.672 114.076C220.792 115.012 220.9 115.864 220.996 116.632C221.08 117.292 220.978 117.844 220.69 118.288C220.402 118.744 219.988 118.972 219.448 118.972C218.98 118.972 218.578 118.792 218.242 118.432C217.918 118.084 217.72 117.568 217.648 116.884C217.42 114.724 217.216 112.48 217.036 110.152C216.856 107.812 216.658 105.448 216.442 103.06C216.37 102.232 216.22 101.656 215.992 101.332C215.764 101.008 215.386 100.846 214.858 100.846C214.378 100.846 213.922 100.99 213.49 101.278C213.07 101.566 212.596 102.244 212.068 103.312C211.048 105.376 210.034 107.488 209.026 109.648C208.03 111.808 207.052 113.884 206.092 115.876C205.852 116.368 205.588 116.728 205.3 116.956C205.012 117.172 204.688 117.28 204.328 117.28C203.812 117.28 203.44 117.034 203.212 116.542C202.996 116.05 202.984 115.42 203.176 114.652ZM207.352 111.7L208.036 109.144C209.572 109.084 211.102 109.024 212.626 108.964C214.15 108.904 215.596 108.856 216.964 108.82C217.54 108.796 218.014 108.886 218.386 109.09C218.758 109.282 218.944 109.6 218.944 110.044C218.944 110.524 218.812 110.872 218.548 111.088C218.296 111.304 217.924 111.424 217.432 111.448C215.752 111.52 214.09 111.574 212.446 111.61C210.802 111.646 209.104 111.676 207.352 111.7ZM219.484 115.084C219.16 115.084 218.872 114.982 218.62 114.778C218.38 114.574 218.26 114.292 218.26 113.932C218.26 113.572 218.368 113.296 218.584 113.104C218.812 112.912 219.112 112.816 219.484 112.816C219.556 112.816 219.658 112.816 219.79 112.816C219.922 112.816 220.048 112.816 220.168 112.816V115.084C220.06 115.096 219.946 115.102 219.826 115.102C219.706 115.09 219.592 115.084 219.484 115.084ZM205.462 110.206C204.382 109.894 203.548 109.618 202.96 109.378C202.372 109.138 201.964 108.904 201.736 108.676C201.496 108.436 201.376 108.166 201.376 107.866C201.376 107.29 201.61 106.948 202.078 106.84C202.534 106.732 203.134 106.78 203.878 106.984C204.622 107.188 205.402 107.476 206.218 107.848L205.462 110.206ZM206.488 112.312C206.188 112.216 205.93 112.114 205.714 112.006C205.51 111.898 205.354 111.772 205.246 111.628C205.138 111.484 205.084 111.304 205.084 111.088C205.084 110.632 205.168 110.272 205.336 110.008C205.504 109.744 205.744 109.582 206.056 109.522C206.38 109.462 206.776 109.516 207.244 109.684L206.488 112.312ZM217.792 107.452L217.54 104.968C217.972 104.92 218.326 104.92 218.602 104.968C218.878 105.016 219.082 105.148 219.214 105.364C219.346 105.568 219.412 105.892 219.412 106.336C219.412 106.768 219.274 107.044 218.998 107.164C218.722 107.284 218.32 107.38 217.792 107.452ZM219.07 111.34L218.944 108.712C219.952 108.676 220.744 108.664 221.32 108.676C221.908 108.688 222.322 108.796 222.562 109C222.814 109.192 222.94 109.558 222.94 110.098C222.94 110.59 222.676 110.92 222.148 111.088C221.632 111.244 220.606 111.328 219.07 111.34Z" fill="#ECAD71"/>
<path d="M76.6342 108.892C76.5502 108.892 76.4662 108.892 76.3822 108.892C76.3102 108.892 76.2262 108.892 76.1302 108.892C75.8062 108.892 75.5602 108.802 75.3922 108.622C75.2362 108.442 75.1582 108.256 75.1582 108.064C75.1582 107.86 75.2362 107.68 75.3922 107.524C75.5602 107.356 75.7942 107.272 76.0942 107.272C76.2022 107.272 76.3162 107.272 76.4362 107.272C76.5562 107.272 76.6702 107.272 76.7782 107.272C77.0662 107.272 77.2762 107.344 77.4082 107.488C77.5402 107.62 77.6062 107.788 77.6062 107.992C77.6062 108.208 77.5222 108.412 77.3542 108.604C77.1862 108.796 76.9462 108.892 76.6342 108.892ZM75.4462 103.06C75.3742 103.06 75.3022 103.06 75.2302 103.06C75.1582 103.06 75.0862 103.06 75.0142 103.06C74.6062 103.06 74.3362 102.946 74.2042 102.718C74.0722 102.478 74.0062 102.208 74.0062 101.908C74.0062 101.668 74.0782 101.452 74.2222 101.26C74.3662 101.068 74.5702 100.972 74.8342 100.972C74.9422 100.972 75.0562 100.972 75.1762 100.972C75.2962 100.972 75.4102 100.972 75.5182 100.972C75.8062 100.972 76.0402 101.074 76.2202 101.278C76.4002 101.47 76.4902 101.74 76.4902 102.088C76.4902 102.412 76.4302 102.658 76.3102 102.826C76.2022 102.982 75.9142 103.06 75.4462 103.06ZM69.7582 98.596C70.3342 98.596 70.7662 98.752 71.0542 99.064C71.3422 99.364 71.4862 99.844 71.4862 100.504C71.4862 101.008 71.3482 101.392 71.0722 101.656C70.7962 101.92 70.3942 102.052 69.8662 102.052C69.2542 102.052 68.7862 101.878 68.4622 101.53C68.1502 101.17 67.9942 100.684 67.9942 100.072C67.9942 99.568 68.1562 99.196 68.4802 98.956C68.8162 98.716 69.2422 98.596 69.7582 98.596ZM66.8782 116.02C66.8782 115.6 66.9802 115.294 67.1842 115.102C67.4002 114.898 67.7302 114.724 68.1742 114.58C68.4502 114.484 68.7382 114.406 69.0382 114.346C69.3502 114.274 69.6742 114.184 70.0102 114.076C70.5502 113.896 70.9402 113.692 71.1802 113.464C71.4202 113.236 71.5822 112.9 71.6662 112.456C71.6902 112.348 71.7082 112.246 71.7202 112.15C71.7442 112.054 71.7622 111.952 71.7742 111.844C73.1302 112.108 74.0482 112.15 74.5282 111.97C75.0082 111.778 75.2482 111.448 75.2482 110.98C75.2602 110.632 75.0562 110.368 74.6362 110.188C74.2282 110.008 73.4062 109.864 72.1702 109.756C72.2422 109.396 72.3142 109.042 72.3862 108.694C72.4702 108.346 72.5302 107.992 72.5662 107.632C73.3702 107.68 74.0062 107.68 74.4742 107.632C74.9422 107.572 75.2722 107.464 75.4642 107.308C75.6682 107.152 75.7702 106.93 75.7702 106.642C75.7702 106.27 75.5662 105.988 75.1582 105.796C74.7622 105.592 74.0302 105.436 72.9622 105.328C73.1902 104.032 73.4062 102.73 73.6102 101.422C73.8142 100.102 74.0062 98.788 74.1862 97.48C74.2582 96.94 74.2162 96.598 74.0602 96.454C73.9042 96.31 73.6102 96.256 73.1782 96.292C72.5422 96.304 72.0202 96.334 71.6122 96.382C71.2162 96.43 70.7302 96.472 70.1542 96.508C69.4942 96.52 68.9542 96.448 68.5342 96.292C68.1262 96.124 67.9222 95.752 67.9222 95.176C67.9222 94.684 68.1202 94.312 68.5162 94.06C68.9242 93.808 69.5662 93.64 70.4422 93.556C71.7382 93.424 73.2622 93.28 75.0142 93.124C76.7662 92.956 78.4222 92.824 79.9822 92.728C80.7622 92.668 81.3262 92.716 81.6742 92.872C82.0342 93.016 82.2142 93.34 82.2142 93.844C82.2142 94.276 82.0582 94.618 81.7462 94.87C81.4342 95.122 81.0262 95.344 80.5222 95.536C80.1262 95.692 79.7002 95.836 79.2442 95.968C78.8002 96.1 78.2782 96.28 77.6782 96.508C77.2462 96.664 76.9642 96.85 76.8322 97.066C76.7122 97.27 76.6702 97.552 76.7062 97.912C76.9222 100.504 77.1802 103.096 77.4802 105.688C77.7802 108.28 78.1102 110.872 78.4702 113.464C78.5302 113.86 78.6442 114.16 78.8122 114.364C78.9922 114.556 79.2622 114.7 79.6222 114.796C79.9342 114.868 80.2102 114.922 80.4502 114.958C80.6902 114.994 80.9542 115.048 81.2422 115.12C81.5902 115.192 81.9022 115.312 82.1782 115.48C82.4662 115.636 82.6102 115.924 82.6102 116.344C82.6102 116.716 82.5142 116.998 82.3222 117.19C82.1302 117.37 81.8662 117.49 81.5302 117.55C81.1942 117.61 80.8102 117.64 80.3782 117.64C80.2222 117.64 79.9702 117.64 79.6222 117.64C79.2862 117.628 78.8962 117.616 78.4522 117.604C78.3202 117.604 78.1822 117.598 78.0382 117.586C77.8942 117.574 77.7442 117.568 77.5882 117.568C77.4442 117.568 77.2942 117.568 77.1382 117.568C76.9822 117.568 76.8142 117.568 76.6342 117.568C76.4662 117.556 76.2982 117.55 76.1302 117.55C75.9622 117.538 75.7882 117.532 75.6082 117.532C75.3202 117.52 75.0262 117.514 74.7262 117.514C74.4382 117.514 74.1502 117.508 73.8622 117.496C73.6702 117.484 73.4722 117.478 73.2682 117.478C73.0762 117.466 72.8842 117.46 72.6922 117.46C72.5122 117.448 72.3262 117.442 72.1342 117.442C72.0022 117.442 71.8642 117.442 71.7202 117.442C71.5882 117.43 71.4562 117.424 71.3242 117.424C71.1922 117.412 71.0662 117.406 70.9462 117.406C70.5262 117.382 70.1482 117.364 69.8122 117.352C69.4882 117.34 69.2302 117.328 69.0382 117.316C68.3902 117.28 67.8682 117.178 67.4722 117.01C67.0762 116.83 66.8782 116.5 66.8782 116.02ZM148.307 117.208C148.151 117.208 148.001 117.178 147.857 117.118C147.713 117.058 147.575 116.968 147.443 116.848C147.347 116.752 147.263 116.632 147.191 116.488C147.119 116.344 147.053 116.146 146.993 115.894C146.945 115.63 146.903 115.27 146.867 114.814C146.831 114.358 146.795 113.764 146.759 113.032C146.747 112.732 146.735 112.444 146.723 112.168C146.711 111.892 146.699 111.622 146.687 111.358C146.675 111.13 146.663 110.908 146.651 110.692C146.651 110.464 146.645 110.242 146.633 110.026C146.621 109.714 146.609 109.414 146.597 109.126C146.597 108.838 146.585 108.556 146.561 108.28C146.561 108.172 146.555 108.064 146.543 107.956C146.543 107.848 146.543 107.74 146.543 107.632C146.543 107.512 146.537 107.404 146.525 107.308C146.525 107.188 146.519 107.074 146.507 106.966C146.507 106.846 146.501 106.732 146.489 106.624C146.489 106.504 146.483 106.39 146.471 106.282C146.447 105.682 146.417 105.07 146.381 104.446C146.357 103.81 146.327 103.144 146.291 102.448C146.255 101.716 146.081 101.14 145.769 100.72C145.469 100.3 145.091 99.97 144.635 99.73C144.179 99.478 143.693 99.256 143.177 99.064C142.673 98.872 142.199 98.644 141.755 98.38C141.311 98.116 140.945 97.756 140.657 97.3C140.381 96.832 140.243 96.208 140.243 95.428C140.243 94.768 140.345 94.228 140.549 93.808C140.753 93.376 141.077 93.058 141.521 92.854C141.977 92.65 142.583 92.548 143.339 92.548C143.231 93.808 143.267 94.666 143.447 95.122C143.639 95.566 143.915 95.788 144.275 95.788C144.671 95.788 144.971 95.584 145.175 95.176C145.379 94.756 145.487 93.892 145.499 92.584C145.823 92.584 146.159 92.584 146.507 92.584C146.855 92.584 147.191 92.584 147.515 92.584C147.479 93.652 147.479 94.474 147.515 95.05C147.563 95.614 147.665 96.004 147.821 96.22C147.977 96.436 148.199 96.544 148.487 96.544C148.739 96.544 148.955 96.442 149.135 96.238C149.327 96.022 149.471 95.632 149.567 95.068C149.663 94.504 149.711 93.688 149.711 92.62C151.319 92.62 152.615 92.638 153.599 92.674C154.583 92.698 155.327 92.758 155.831 92.854C156.347 92.938 156.689 93.082 156.857 93.286C157.037 93.478 157.127 93.748 157.127 94.096C157.127 94.468 156.971 94.75 156.659 94.942C156.359 95.122 155.963 95.26 155.471 95.356C154.991 95.44 154.475 95.524 153.923 95.608C153.383 95.68 152.861 95.794 152.357 95.95C151.865 96.094 151.451 96.322 151.115 96.634C150.791 96.946 150.611 97.39 150.575 97.966C150.359 101.17 150.191 103.864 150.071 106.048C149.951 108.22 149.849 109.996 149.765 111.376C149.693 112.744 149.627 113.806 149.567 114.562C149.507 115.318 149.435 115.87 149.351 116.218C149.267 116.554 149.159 116.788 149.027 116.92C148.955 117.004 148.847 117.076 148.703 117.136C148.571 117.184 148.439 117.208 148.307 117.208ZM153.707 101.404C153.191 101.404 152.729 101.23 152.321 100.882C151.925 100.534 151.727 100.036 151.727 99.388C151.727 98.716 151.907 98.176 152.267 97.768C152.627 97.36 153.191 97.156 153.959 97.156C154.559 97.156 155.045 97.354 155.417 97.75C155.789 98.134 155.975 98.596 155.975 99.136C155.975 99.928 155.789 100.504 155.417 100.864C155.057 101.224 154.487 101.404 153.707 101.404ZM148.955 113.14L148.847 110.548C150.275 110.488 151.373 110.464 152.141 110.476C152.909 110.488 153.437 110.578 153.725 110.746C154.025 110.914 154.175 111.196 154.175 111.592C154.175 112.072 154.031 112.414 153.743 112.618C153.467 112.81 152.951 112.936 152.195 112.996C151.451 113.044 150.371 113.092 148.955 113.14ZM147.515 103.348L147.479 106.084C145.931 106.072 144.737 106.042 143.897 105.994C143.057 105.946 142.469 105.82 142.133 105.616C141.809 105.4 141.647 105.052 141.647 104.572C141.647 104.08 141.833 103.744 142.205 103.564C142.589 103.372 143.213 103.276 144.077 103.276C144.941 103.264 146.087 103.288 147.515 103.348Z" fill="#F35A3F"/>
</svg>
